<svg width="160" height="41" viewBox="0 0 160 41" fill="none" xmlns="http://www.w3.org/2000/svg">
<path d="M13.9013 0.799997H18.2133V40H8.69328V11.888L0.0132813 15.528V6.176L13.9013 0.799997ZM29.0169 5.616C32.1156 1.92 36.3529 0.0719967 41.7289 0.0719967C47.1049 0.0719967 51.3422 1.92 54.4409 5.616C57.5396 9.312 59.0889 14.24 59.0889 20.4C59.0889 26.56 57.5396 31.488 54.4409 35.184C51.3422 38.88 47.1049 40.728 41.7289 40.728C36.3529 40.728 32.1156 38.88 29.0169 35.184C25.9182 31.488 24.3689 26.56 24.3689 20.4C24.3689 14.24 25.9182 9.312 29.0169 5.616ZM35.8489 28.856C37.0809 30.7227 39.0409 31.656 41.7289 31.656C44.4169 31.656 46.3769 30.7227 47.6089 28.856C48.8409 26.952 49.4569 24.1333 49.4569 20.4C49.4569 16.6667 48.8409 13.8667 47.6089 12C46.3769 10.096 44.4169 9.144 41.7289 9.144C39.0409 9.144 37.0809 10.096 35.8489 12C34.6169 13.8667 34.0009 16.6667 34.0009 20.4C34.0009 24.1333 34.6169 26.952 35.8489 28.856ZM68.2278 5.616C71.3265 1.92 75.5638 0.0719967 80.9398 0.0719967C86.3158 0.0719967 90.5532 1.92 93.6518 5.616C96.7505 9.312 98.2998 14.24 98.2998 20.4C98.2998 26.56 96.7505 31.488 93.6518 35.184C90.5532 38.88 86.3158 40.728 80.9398 40.728C75.5638 40.728 71.3265 38.88 68.2278 35.184C65.1292 31.488 63.5798 26.56 63.5798 20.4C63.5798 14.24 65.1292 9.312 68.2278 5.616ZM75.0598 28.856C76.2918 30.7227 78.2518 31.656 80.9398 31.656C83.6278 31.656 85.5878 30.7227 86.8198 28.856C88.0518 26.952 88.6678 24.1333 88.6678 20.4C88.6678 16.6667 88.0518 13.8667 86.8198 12C85.5878 10.096 83.6278 9.144 80.9398 9.144C78.2518 9.144 76.2918 10.096 75.0598 12C73.8278 13.8667 73.2118 16.6667 73.2118 20.4C73.2118 24.1333 73.8278 26.952 75.0598 28.856ZM123.903 20.568C121.849 22.6587 119.124 23.704 115.727 23.704C112.329 23.704 109.604 22.6587 107.551 20.568C105.497 18.44 104.471 15.5467 104.471 11.888C104.471 8.22933 105.497 5.35467 107.551 3.264C109.604 1.136 112.329 0.0719967 115.727 0.0719967C119.124 0.0719967 121.849 1.136 123.903 3.264C125.956 5.35467 126.983 8.22933 126.983 11.888C126.983 15.5467 125.956 18.44 123.903 20.568ZM147.647 0.799997L125.247 40H116.287L138.687 0.799997H147.647ZM113.375 15.304C113.823 16.0133 114.607 16.368 115.727 16.368C116.847 16.368 117.631 16.0133 118.079 15.304C118.527 14.5573 118.751 13.4187 118.751 11.888C118.751 10.3573 118.527 9.23733 118.079 8.528C117.631 7.78133 116.847 7.408 115.727 7.408C114.607 7.408 113.823 7.78133 113.375 8.528C112.927 9.23733 112.703 10.3573 112.703 11.888C112.703 13.4187 112.927 14.5573 113.375 15.304ZM140.031 20.288C142.084 18.16 144.809 17.096 148.207 17.096C151.604 17.096 154.329 18.16 156.383 20.288C158.436 22.3787 159.463 25.2533 159.463 28.912C159.463 32.5707 158.436 35.464 156.383 37.592C154.329 39.6827 151.604 40.728 148.207 40.728C144.809 40.728 142.084 39.6827 140.031 37.592C137.977 35.464 136.951 32.5707 136.951 28.912C136.951 25.2533 137.977 22.3787 140.031 20.288ZM150.559 25.552C150.111 24.8053 149.327 24.432 148.207 24.432C147.087 24.432 146.303 24.8053 145.855 25.552C145.407 26.2613 145.183 27.3813 145.183 28.912C145.183 30.4427 145.407 31.5813 145.855 32.328C146.303 33.0373 147.087 33.392 148.207 33.392C149.327 33.392 150.111 33.0373 150.559 32.328C151.007 31.5813 151.231 30.4427 151.231 28.912C151.231 27.3813 151.007 26.2613 150.559 25.552Z" fill="#6E6868"/>
</svg>
