<svg width="173" height="41" viewBox="0 0 173 41" fill="none" xmlns="http://www.w3.org/2000/svg">
<path d="M14.7763 0.799997H19.0883V40H9.56828V11.888L0.888281 15.528V6.176L14.7763 0.799997ZM29.8919 5.616C32.9906 1.92 37.2279 0.0719967 42.6039 0.0719967C47.9799 0.0719967 52.2172 1.92 55.3159 5.616C58.4146 9.312 59.9639 14.24 59.9639 20.4C59.9639 26.56 58.4146 31.488 55.3159 35.184C52.2172 38.88 47.9799 40.728 42.6039 40.728C37.2279 40.728 32.9906 38.88 29.8919 35.184C26.7932 31.488 25.2439 26.56 25.2439 20.4C25.2439 14.24 26.7932 9.312 29.8919 5.616ZM36.7239 28.856C37.9559 30.7227 39.9159 31.656 42.6039 31.656C45.2919 31.656 47.2519 30.7227 48.4839 28.856C49.7159 26.952 50.3319 24.1333 50.3319 20.4C50.3319 16.6667 49.7159 13.8667 48.4839 12C47.2519 10.096 45.2919 9.144 42.6039 9.144C39.9159 9.144 37.9559 10.096 36.7239 12C35.4919 13.8667 34.8759 16.6667 34.8759 20.4C34.8759 24.1333 35.4919 26.952 36.7239 28.856ZM69.1028 5.616C72.2015 1.92 76.4388 0.0719967 81.8148 0.0719967C87.1908 0.0719967 91.4282 1.92 94.5268 5.616C97.6255 9.312 99.1748 14.24 99.1748 20.4C99.1748 26.56 97.6255 31.488 94.5268 35.184C91.4282 38.88 87.1908 40.728 81.8148 40.728C76.4388 40.728 72.2015 38.88 69.1028 35.184C66.0042 31.488 64.4548 26.56 64.4548 20.4C64.4548 14.24 66.0042 9.312 69.1028 5.616ZM75.9348 28.856C77.1668 30.7227 79.1268 31.656 81.8148 31.656C84.5028 31.656 86.4628 30.7227 87.6948 28.856C88.9268 26.952 89.5428 24.1333 89.5428 20.4C89.5428 16.6667 88.9268 13.8667 87.6948 12C86.4628 10.096 84.5028 9.144 81.8148 9.144C79.1268 9.144 77.1668 10.096 75.9348 12C74.7028 13.8667 74.0868 16.6667 74.0868 20.4C74.0868 24.1333 74.7028 26.952 75.9348 28.856ZM108.314 5.616C111.412 1.92 115.65 0.0719967 121.026 0.0719967C126.402 0.0719967 130.639 1.92 133.738 5.616C136.836 9.312 138.386 14.24 138.386 20.4C138.386 26.56 136.836 31.488 133.738 35.184C130.639 38.88 126.402 40.728 121.026 40.728C115.65 40.728 111.412 38.88 108.314 35.184C105.215 31.488 103.666 26.56 103.666 20.4C103.666 14.24 105.215 9.312 108.314 5.616ZM115.146 28.856C116.378 30.7227 118.338 31.656 121.026 31.656C123.714 31.656 125.674 30.7227 126.906 28.856C128.138 26.952 128.754 24.1333 128.754 20.4C128.754 16.6667 128.138 13.8667 126.906 12C125.674 10.096 123.714 9.144 121.026 9.144C118.338 9.144 116.378 10.096 115.146 12C113.914 13.8667 113.298 16.6667 113.298 20.4C113.298 24.1333 113.914 26.952 115.146 28.856ZM163.373 9.48V18.944H172.613V28.016H163.373V37.536H153.853V28.016H144.557V18.944H153.853V9.48H163.373Z" fill="#6E6868"/>
</svg>
