<svg width="137" height="41" viewBox="0 0 137 41" fill="none" xmlns="http://www.w3.org/2000/svg">
<path d="M0.435156 0.799997H28.9952V7.576L12.9792 40H2.22716L17.5152 9.872H0.435156V0.799997ZM57.2511 19.56C59.0431 20.3813 60.4244 21.6133 61.3951 23.256C62.4031 24.8987 62.9071 26.7467 62.9071 28.8C62.9071 32.4213 61.4698 35.3147 58.5951 37.48C55.7578 39.6453 52.0991 40.728 47.6191 40.728C43.1391 40.728 39.4618 39.6453 36.5871 37.48C33.7498 35.3147 32.3311 32.4213 32.3311 28.8C32.3311 26.7467 32.8164 24.8987 33.7871 23.256C34.7951 21.6133 36.1951 20.3813 37.9871 19.56C36.5684 18.776 35.4298 17.6747 34.5711 16.256C33.7498 14.8 33.3391 13.1947 33.3391 11.44C33.3391 8.15466 34.7018 5.448 37.4271 3.32C40.1524 1.15466 43.5498 0.0719967 47.6191 0.0719967C51.6884 0.0719967 55.0858 1.15466 57.8111 3.32C60.5364 5.448 61.8991 8.15466 61.8991 11.44C61.8991 13.1947 61.4698 14.8 60.6111 16.256C59.7898 17.6747 58.6698 18.776 57.2511 19.56ZM52.3791 12.672C52.3791 10.2453 50.7924 9.032 47.6191 9.032C44.4458 9.032 42.8591 10.2453 42.8591 12.672C42.8591 14.8 44.4458 15.864 47.6191 15.864C50.7924 15.864 52.3791 14.8 52.3791 12.672ZM41.9071 27.904C41.9071 30.48 43.8111 31.768 47.6191 31.768C51.4271 31.768 53.3311 30.48 53.3311 27.904C53.3311 25.3653 51.4271 24.096 47.6191 24.096C43.8111 24.096 41.9071 25.3653 41.9071 27.904ZM71.7669 5.616C74.8656 1.92 79.1029 0.0719967 84.4789 0.0719967C89.8549 0.0719967 94.0922 1.92 97.1909 5.616C100.29 9.312 101.839 14.24 101.839 20.4C101.839 26.56 100.29 31.488 97.1909 35.184C94.0922 38.88 89.8549 40.728 84.4789 40.728C79.1029 40.728 74.8656 38.88 71.7669 35.184C68.6682 31.488 67.1189 26.56 67.1189 20.4C67.1189 14.24 68.6682 9.312 71.7669 5.616ZM78.5989 28.856C79.8309 30.7227 81.7909 31.656 84.4789 31.656C87.1669 31.656 89.1269 30.7227 90.3589 28.856C91.5909 26.952 92.2069 24.1333 92.2069 20.4C92.2069 16.6667 91.5909 13.8667 90.3589 12C89.1269 10.096 87.1669 9.144 84.4789 9.144C81.7909 9.144 79.8309 10.096 78.5989 12C77.3669 13.8667 76.7509 16.6667 76.7509 20.4C76.7509 24.1333 77.3669 26.952 78.5989 28.856ZM126.826 9.48V18.944H136.066V28.016H126.826V37.536H117.306V28.016H108.01V18.944H117.306V9.48H126.826Z" fill="#6E6868"/>
</svg>
