<svg width="271" height="123" viewBox="0 0 271 123" fill="none" xmlns="http://www.w3.org/2000/svg">
<mask id="path-1-outside-1_43_2338" maskUnits="userSpaceOnUse" x="-1" y="20" width="243" height="83" fill="black">
<rect fill="white" x="-1" y="20" width="243" height="83"/>
<path d="M32.2811 80.3454H59.319V97H3.59821V84.5605L24.6734 66.1582C31.5957 60.0584 35.9136 56.0147 37.627 54.0271C39.409 52.0395 40.2999 49.9834 40.2999 47.8587C40.2999 45.8026 39.5803 44.0549 38.141 42.6156C36.7703 41.1078 34.5771 40.3539 31.5614 40.3539C25.9414 40.3539 22.7544 43.6094 22.0005 50.1205H4.42066C4.69481 42.1016 7.40203 35.6934 12.5423 30.8958C17.7512 26.0981 24.365 23.6993 32.3839 23.6993C40.1971 23.6993 46.3998 25.9611 50.9918 30.4845C55.6523 35.008 57.9826 40.5253 57.9826 47.0363C57.9826 49.2295 57.6399 51.3541 56.9545 53.4103C56.2691 55.3978 55.5495 57.1113 54.7956 58.5506C54.0417 59.9213 52.6024 61.7033 50.4777 63.8965C48.4216 66.0211 46.7767 67.6318 45.543 68.7284C44.3779 69.7564 42.2533 71.6412 39.1691 74.3827L32.4867 80.2426L32.2811 80.3454ZM74.5897 33.8771C80.2783 27.0919 88.0573 23.6993 97.9267 23.6993C107.796 23.6993 115.575 27.0919 121.264 33.8771C126.952 40.6623 129.797 49.7093 129.797 61.0179C129.797 72.3266 126.952 81.3735 121.264 88.1587C115.575 94.9439 107.796 98.3365 97.9267 98.3365C88.0573 98.3365 80.2783 94.9439 74.5897 88.1587C68.9011 81.3735 66.0568 72.3266 66.0568 61.0179C66.0568 49.7093 68.9011 40.6623 74.5897 33.8771ZM87.1321 76.5416C89.3938 79.9685 92.992 81.6819 97.9267 81.6819C102.861 81.6819 106.46 79.9685 108.721 76.5416C110.983 73.0462 112.114 67.8716 112.114 61.0179C112.114 54.1642 110.983 49.0239 108.721 45.597C106.46 42.1016 102.861 40.3539 97.9267 40.3539C92.992 40.3539 89.3938 42.1016 87.1321 45.597C84.8703 49.0239 83.7395 54.1642 83.7395 61.0179C83.7395 67.8716 84.8703 73.0462 87.1321 76.5416ZM162.999 25.0358H170.915V97H153.438V45.3914L137.503 52.0738V34.9052L162.999 25.0358ZM214.085 48.27C220.734 48.27 226.354 50.4289 230.946 54.7467C235.606 58.9961 237.936 64.8217 237.936 72.2238C237.936 80.2426 235.298 86.6166 230.02 91.3457C224.743 96.0062 218.026 98.3365 209.87 98.3365C205.073 98.3365 200.618 97.514 196.506 95.8691C192.462 94.1557 189.035 91.3457 186.225 87.439C183.415 83.5324 181.907 78.8033 181.702 73.2518H199.384C199.658 76.1989 200.755 78.3578 202.674 79.7286C204.662 81.0993 206.992 81.7847 209.665 81.7847C212.955 81.7847 215.525 80.8937 217.375 79.1118C219.294 77.2613 220.254 74.8967 220.254 72.0181C220.254 69.1396 219.294 66.8778 217.375 65.233C215.525 63.5195 213.057 62.6628 209.973 62.6628C207.643 62.6628 205.621 63.1083 203.908 63.9993C202.263 64.8903 201.063 65.9183 200.309 67.0835H183.655L192.599 25.0358H234.544V41.6904H205.758L203.908 50.7373C206.855 49.0924 210.247 48.27 214.085 48.27Z"/>
</mask>
<path d="M32.2811 80.3454L30.6391 77.0614L32.2811 84.0171V80.3454ZM59.319 80.3454H62.9907V76.6738H59.319V80.3454ZM59.319 97V100.672H62.9907V97H59.319ZM3.59821 97H-0.0734329V100.672H3.59821V97ZM3.59821 84.5605L1.18328 81.7948L-0.0734329 82.8921V84.5605H3.59821ZM24.6734 66.1582L27.0884 68.9239L27.0946 68.9184L27.1009 68.9129L24.6734 66.1582ZM37.627 54.0271L34.8932 51.5761L34.8694 51.6027L34.8461 51.6297L37.627 54.0271ZM38.141 42.6156L35.4242 45.0855L35.483 45.1501L35.5448 45.2119L38.141 42.6156ZM22.0005 50.1205V53.7921H25.2715L25.6478 50.5428L22.0005 50.1205ZM4.42066 50.1205L0.751159 49.995L0.621344 53.7921H4.42066V50.1205ZM12.5423 30.8958L10.0549 28.1951L10.046 28.2033L10.0371 28.2116L12.5423 30.8958ZM50.9918 30.4845L48.4151 33.1002L48.4248 33.1098L48.4346 33.1192L50.9918 30.4845ZM56.9545 53.4103L60.4256 54.6072L60.4318 54.5893L60.4377 54.5713L56.9545 53.4103ZM54.7956 58.5506L58.0127 60.32L58.0307 60.2873L58.048 60.2542L54.7956 58.5506ZM50.4777 63.8965L47.8406 61.3418L47.8393 61.3431L50.4777 63.8965ZM45.543 68.7284L47.9723 71.4815L47.9824 71.4726L45.543 68.7284ZM39.1691 74.3827L41.5899 77.1432L41.5992 77.1351L41.6084 77.1269L39.1691 74.3827ZM32.4867 80.2426L34.1287 83.5266L34.5518 83.3151L34.9075 83.0032L32.4867 80.2426ZM32.2811 84.0171H59.319V76.6738H32.2811V84.0171ZM55.6474 80.3454V97H62.9907V80.3454H55.6474ZM59.319 93.3284H3.59821V100.672H59.319V93.3284ZM7.26985 97V84.5605H-0.0734329V97H7.26985ZM6.01314 87.3262L27.0884 68.9239L22.2585 63.3925L1.18328 81.7948L6.01314 87.3262ZM27.1009 68.9129C33.9692 62.8606 38.4967 58.6415 40.4079 56.4245L34.8461 51.6297C33.3305 53.3878 29.2222 57.2561 22.246 63.4035L27.1009 68.9129ZM40.3608 56.4781C42.586 53.9961 43.9716 51.1028 43.9716 47.8587H36.6283C36.6283 48.864 36.2319 50.0829 34.8932 51.5761L40.3608 56.4781ZM43.9716 47.8587C43.9716 44.84 42.8729 42.1551 40.7373 40.0194L35.5448 45.2119C36.2877 45.9548 36.6283 46.7653 36.6283 47.8587H43.9716ZM40.8578 40.1458C38.5137 37.5674 35.1109 36.6823 31.5614 36.6823V44.0256C34.0433 44.0256 35.0268 44.6483 35.4242 45.0855L40.8578 40.1458ZM31.5614 36.6823C28.0096 36.6823 24.7713 37.7358 22.3324 40.2271C19.9667 42.6437 18.784 45.9778 18.3532 49.6982L25.6478 50.5428C25.9709 47.7521 26.7586 46.2029 27.5799 45.364C28.328 44.5998 29.4932 44.0256 31.5614 44.0256V36.6823ZM22.0005 46.4488H4.42066V53.7921H22.0005V46.4488ZM8.09015 50.2459C8.33613 43.0513 10.7217 37.6174 15.0476 33.5799L10.0371 28.2116C4.08236 33.7693 1.05349 41.1519 0.751159 49.995L8.09015 50.2459ZM15.0298 33.5964C19.47 29.5067 25.1554 27.371 32.3839 27.371V20.0277C23.5746 20.0277 16.0323 22.6895 10.0549 28.1951L15.0298 33.5964ZM32.3839 27.371C39.4506 27.371 44.6509 29.3922 48.4151 33.1002L53.5684 27.8688C48.1486 22.5299 40.9436 20.0277 32.3839 20.0277V27.371ZM48.4346 33.1192C52.3807 36.9493 54.3109 41.5152 54.3109 47.0363H61.6542C61.6542 39.5353 58.9239 33.0667 53.549 27.8498L48.4346 33.1192ZM54.3109 47.0363C54.3109 48.8396 54.0304 50.572 53.4713 52.2492L60.4377 54.5713C61.2494 52.1363 61.6542 49.6193 61.6542 47.0363H54.3109ZM53.4834 52.2133C52.8417 54.0745 52.191 55.6101 51.5431 56.8469L58.048 60.2542C58.908 58.6124 59.6966 56.7212 60.4256 54.6072L53.4834 52.2133ZM51.5784 56.7811C51.0683 57.7086 49.9103 59.2053 47.8406 61.3418L53.1149 66.4512C55.2945 64.2012 57.015 62.1341 58.0127 60.32L51.5784 56.7811ZM47.8393 61.3431C45.8057 63.4445 44.2352 64.9784 43.1037 65.9841L47.9824 71.4726C49.3183 70.2851 51.0375 68.5977 53.1162 66.4498L47.8393 61.3431ZM43.1138 65.9752C41.943 67.0083 39.8136 68.8973 36.7298 71.6385L41.6084 77.1269C44.6929 74.3851 46.8129 72.5045 47.9723 71.4815L43.1138 65.9752ZM36.7483 71.6221L30.0659 77.4821L34.9075 83.0032L41.5899 77.1432L36.7483 71.6221ZM30.8447 76.9586L30.6391 77.0614L33.9231 83.6294L34.1287 83.5266L30.8447 76.9586ZM74.5897 33.8771L77.4034 36.236L77.4034 36.236L74.5897 33.8771ZM121.264 33.8771L118.45 36.236V36.236L121.264 33.8771ZM121.264 88.1587L118.45 85.7998L121.264 88.1587ZM74.5897 88.1587L71.7761 90.5176L74.5897 88.1587ZM87.1321 76.5416L84.0495 78.5362L84.0585 78.5502L84.0677 78.5641L87.1321 76.5416ZM108.721 76.5416L111.786 78.5641L111.795 78.5502L111.804 78.5362L108.721 76.5416ZM108.721 45.597L105.639 47.5916L105.648 47.6056L105.657 47.6195L108.721 45.597ZM87.1321 45.597L90.1965 47.6195L90.2056 47.6056L90.2147 47.5916L87.1321 45.597ZM77.4034 36.236C82.309 30.3848 89.0029 27.371 97.9267 27.371V20.0277C87.1118 20.0277 78.2477 23.7991 71.7761 31.5182L77.4034 36.236ZM97.9267 27.371C106.851 27.371 113.544 30.3848 118.45 36.236L124.077 31.5182C117.606 23.7991 108.742 20.0277 97.9267 20.0277V27.371ZM118.45 36.236C123.445 42.1943 126.125 50.3275 126.125 61.0179H133.468C133.468 49.091 130.459 39.1303 124.077 31.5182L118.45 36.236ZM126.125 61.0179C126.125 71.7083 123.445 79.8415 118.45 85.7998L124.077 90.5176C130.459 82.9055 133.468 72.9448 133.468 61.0179H126.125ZM118.45 85.7998C113.544 91.651 106.851 94.6648 97.9267 94.6648V102.008C108.742 102.008 117.606 98.2367 124.077 90.5176L118.45 85.7998ZM97.9267 94.6648C89.0029 94.6648 82.309 91.651 77.4034 85.7998L71.7761 90.5176C78.2477 98.2367 87.1118 102.008 97.9267 102.008V94.6648ZM77.4034 85.7998C72.4081 79.8415 69.7285 71.7083 69.7285 61.0179H62.3852C62.3852 72.9448 65.3942 82.9055 71.7761 90.5176L77.4034 85.7998ZM69.7285 61.0179C69.7285 50.3275 72.4081 42.1943 77.4034 36.236L71.7761 31.5182C65.3942 39.1303 62.3852 49.091 62.3852 61.0179H69.7285ZM84.0677 78.5641C87.1529 83.2387 92.0448 85.3536 97.9267 85.3536V78.0103C93.9392 78.0103 91.6347 76.6982 90.1965 74.5191L84.0677 78.5641ZM97.9267 85.3536C103.809 85.3536 108.7 83.2387 111.786 78.5641L105.657 74.5191C104.219 76.6982 101.914 78.0103 97.9267 78.0103V85.3536ZM111.804 78.5362C114.625 74.176 115.786 68.1674 115.786 61.0179H108.442C108.442 67.5758 107.341 71.9165 105.639 74.547L111.804 78.5362ZM115.786 61.0179C115.786 53.8768 114.628 47.8817 111.786 43.5745L105.657 47.6195C107.338 50.1661 108.442 54.4515 108.442 61.0179H115.786ZM111.804 43.6024C108.732 38.8549 103.839 36.6823 97.9267 36.6823V44.0256C101.884 44.0256 104.187 45.3483 105.639 47.5916L111.804 43.6024ZM97.9267 36.6823C92.0142 36.6823 87.1214 38.8549 84.0495 43.6024L90.2147 47.5916C91.6662 45.3483 93.9698 44.0256 97.9267 44.0256V36.6823ZM84.0677 43.5745C81.225 47.8817 80.0678 53.8768 80.0678 61.0179H87.4111C87.4111 54.4515 88.5157 50.1661 90.1965 47.6195L84.0677 43.5745ZM80.0678 61.0179C80.0678 68.1674 81.2281 74.176 84.0495 78.5362L90.2147 74.547C88.5126 71.9165 87.4111 67.5758 87.4111 61.0179H80.0678ZM162.999 25.0358V21.3642H162.313L161.673 21.6118L162.999 25.0358ZM170.915 25.0358H174.587V21.3642H170.915V25.0358ZM170.915 97V100.672H174.587V97H170.915ZM153.438 97H149.766V100.672H153.438V97ZM153.438 45.3914H157.11V39.8703L152.018 42.0054L153.438 45.3914ZM137.503 52.0738H133.831V57.5949L138.923 55.4598L137.503 52.0738ZM137.503 34.9052L136.178 31.4811L133.831 32.3893V34.9052H137.503ZM162.999 28.7075H170.915V21.3642H162.999V28.7075ZM167.243 25.0358V97H174.587V25.0358H167.243ZM170.915 93.3284H153.438V100.672H170.915V93.3284ZM157.11 97V45.3914H149.766V97H157.11ZM152.018 42.0054L136.083 48.6878L138.923 55.4598L154.858 48.7774L152.018 42.0054ZM141.175 52.0738V34.9052H133.831V52.0738H141.175ZM138.828 38.3292L164.324 28.4599L161.673 21.6118L136.178 31.4811L138.828 38.3292ZM230.946 54.7467L228.43 57.4216L228.451 57.4409L228.472 57.4599L230.946 54.7467ZM230.02 91.3457L232.451 94.0978L232.461 94.089L232.471 94.0801L230.02 91.3457ZM196.506 95.8691L195.073 99.2498L195.107 99.2643L195.142 99.2782L196.506 95.8691ZM186.225 87.439L183.244 89.583L186.225 87.439ZM181.702 73.2518V69.5802H177.891L178.032 73.3877L181.702 73.2518ZM199.384 73.2518L203.04 72.9117L202.73 69.5802H199.384V73.2518ZM202.674 79.7286L200.54 82.7163L200.564 82.7339L200.589 82.7511L202.674 79.7286ZM217.375 79.1118L219.922 81.7565L219.924 81.7548L217.375 79.1118ZM217.375 65.233L214.881 67.9271L214.932 67.9749L214.986 68.0207L217.375 65.233ZM203.908 63.9993L202.214 60.7417L202.186 60.7561L202.159 60.7708L203.908 63.9993ZM200.309 67.0835V70.7551H202.307L203.392 69.0781L200.309 67.0835ZM183.655 67.0835L180.064 66.3195L179.12 70.7551H183.655V67.0835ZM192.599 25.0358V21.3642H189.626L189.008 24.2719L192.599 25.0358ZM234.544 25.0358H238.215V21.3642H234.544V25.0358ZM234.544 41.6904V45.362H238.215V41.6904H234.544ZM205.758 41.6904V38.0187H202.761L202.161 40.9546L205.758 41.6904ZM203.908 50.7373L200.31 50.0015L198.706 57.8453L205.697 53.9434L203.908 50.7373ZM214.085 51.9416C219.855 51.9416 224.559 53.7816 228.43 57.4216L233.461 52.0719C228.148 47.0762 221.612 44.5983 214.085 44.5983V51.9416ZM228.472 57.4599C232.235 60.8915 234.265 65.6582 234.265 72.2238H241.608C241.608 63.9853 238.977 57.1006 233.419 52.0336L228.472 57.4599ZM234.265 72.2238C234.265 79.3514 231.963 84.6743 227.57 88.6113L232.471 94.0801C238.632 88.5589 241.608 81.1339 241.608 72.2238H234.265ZM227.59 88.5936C223.088 92.5689 217.282 94.6648 209.87 94.6648V102.008C218.771 102.008 226.398 99.4435 232.451 94.0978L227.59 88.5936ZM209.87 94.6648C205.501 94.6648 201.513 93.9176 197.869 92.4601L195.142 99.2782C199.723 101.111 204.645 102.008 209.87 102.008V94.6648ZM197.938 92.4885C194.573 91.0624 191.662 88.7094 189.206 85.2951L183.244 89.583C186.408 93.9819 190.351 97.249 195.073 99.2498L197.938 92.4885ZM189.206 85.2951C186.88 82.062 185.554 78.0594 185.371 73.1159L178.032 73.3877C178.261 79.5472 179.95 85.0028 183.244 89.583L189.206 85.2951ZM181.702 76.9235H199.384V69.5802H181.702V76.9235ZM195.728 73.5919C196.074 77.3082 197.54 80.5734 200.54 82.7163L204.808 76.7409C203.97 76.1423 203.243 75.0897 203.04 72.9117L195.728 73.5919ZM200.589 82.7511C203.255 84.5895 206.33 85.4564 209.665 85.4564V78.1131C207.653 78.1131 206.068 77.6092 204.758 76.7061L200.589 82.7511ZM209.665 85.4564C213.627 85.4564 217.211 84.3676 219.922 81.7565L214.828 76.467C213.839 77.4199 212.282 78.1131 209.665 78.1131V85.4564ZM219.924 81.7548C222.622 79.1533 223.925 75.8053 223.925 72.0182H216.582C216.582 73.9881 215.967 75.3693 214.827 76.4688L219.924 81.7548ZM223.925 72.0182C223.925 68.2338 222.616 64.889 219.765 62.4452L214.986 68.0207C215.973 68.8667 216.582 70.0453 216.582 72.0182H223.925ZM219.87 62.5388C217.197 60.0637 213.765 58.9912 209.973 58.9912V66.3344C212.349 66.3344 213.853 66.9753 214.881 67.9271L219.87 62.5388ZM209.973 58.9912C207.174 58.9912 204.548 59.528 202.214 60.7417L205.602 67.2568C206.694 66.6886 208.112 66.3344 209.973 66.3344V58.9912ZM202.159 60.7708C200.153 61.8571 198.411 63.2586 197.227 65.0888L203.392 69.0781C203.716 68.578 204.372 67.9234 205.656 67.2277L202.159 60.7708ZM200.309 63.4118H183.655V70.7551H200.309V63.4118ZM187.246 67.8474L196.19 25.7997L189.008 24.2719L180.064 66.3195L187.246 67.8474ZM192.599 28.7075H234.544V21.3642H192.599V28.7075ZM230.872 25.0358V41.6904H238.215V25.0358H230.872ZM234.544 38.0187H205.758V45.362H234.544V38.0187ZM202.161 40.9546L200.31 50.0015L207.505 51.4731L209.355 42.4262L202.161 40.9546ZM205.697 53.9434C208.026 52.6436 210.787 51.9416 214.085 51.9416V44.5983C209.708 44.5983 205.684 45.5412 202.118 47.5312L205.697 53.9434Z" fill="#EBB6B6" mask="url(#path-1-outside-1_43_2338)"/>
</svg>
