<svg width="126" height="126" viewBox="0 0 126 126" fill="none" xmlns="http://www.w3.org/2000/svg">
<rect x="0.5" y="0.5" width="125" height="125" rx="4.5" fill="#FBF2F2" stroke="#EBB6B6"/>
<path d="M25.862 42.5C29.7701 37.5 35.1142 35 41.8944 35C48.6746 35 54.0187 37.5 57.9267 42.5C61.8347 47.5 63.7888 54.1667 63.7888 62.5C63.7888 70.8333 61.8347 77.5 57.9267 82.5C54.0187 87.5 48.6746 90 41.8944 90C35.1142 90 29.7701 87.5 25.862 82.5C21.954 77.5 20 70.8333 20 62.5C20 54.1667 21.954 47.5 25.862 42.5ZM34.4785 73.9394C36.0323 76.4646 38.5043 77.7273 41.8944 77.7273C45.2845 77.7273 47.7564 76.4646 49.3102 73.9394C50.864 71.3636 51.6409 67.5505 51.6409 62.5C51.6409 57.4495 50.864 53.6616 49.3102 51.1364C47.7564 48.5606 45.2845 47.2727 41.8944 47.2727C38.5043 47.2727 36.0323 48.5606 34.4785 51.1364C32.9247 53.6616 32.1479 57.4495 32.1479 62.5C32.1479 67.5505 32.9247 71.3636 34.4785 73.9394Z" fill="#DD8686"/>
<path d="M87.4251 76.7424H106V89.0152H67.7202V79.8485L82.1987 66.2879C86.9542 61.7929 89.9206 58.8131 91.0977 57.3485C92.3219 55.8838 92.934 54.3687 92.934 52.803C92.934 51.2879 92.4396 50 91.4508 48.9394C90.5091 47.8283 89.0024 47.2727 86.9307 47.2727C83.0698 47.2727 80.8803 49.6717 80.3624 54.4697H68.2852C68.4735 48.5606 70.3334 43.8384 73.8647 40.303C77.4431 36.7677 81.9868 35 87.4957 35C92.8634 35 97.1245 36.6667 100.279 40C103.481 43.3333 105.082 47.399 105.082 52.197C105.082 53.8131 104.846 55.3788 104.376 56.8939C103.905 58.3586 103.41 59.6212 102.892 60.6818C102.374 61.6919 101.386 63.0051 99.9261 64.6212C98.5135 66.1869 97.3835 67.3737 96.536 68.1818C95.7355 68.9394 94.2759 70.3283 92.1571 72.3485L87.5664 76.6667L87.4251 76.7424Z" fill="#DD8686"/>
</svg>
