<svg width="126" height="126" viewBox="0 0 126 126" fill="none" xmlns="http://www.w3.org/2000/svg">
<rect x="0.5" y="0.5" width="125" height="125" rx="4.5" fill="#FBF2F2" stroke="#EBB6B6"/>
<path d="M23.8123 44.9545C27.6872 40.3182 32.986 38 39.7088 38C46.4315 38 51.7303 40.3182 55.6052 44.9545C59.4801 49.5909 61.4175 55.7727 61.4175 63.5C61.4175 71.2273 59.4801 77.4091 55.6052 82.0455C51.7303 86.6818 46.4315 89 39.7088 89C32.986 89 27.6872 86.6818 23.8123 82.0455C19.9374 77.4091 18 71.2273 18 63.5C18 55.7727 19.9374 49.5909 23.8123 44.9545ZM32.3558 74.1074C33.8964 76.449 36.3474 77.6198 39.7088 77.6198C43.0701 77.6198 45.5211 76.449 47.0617 74.1074C48.6024 71.719 49.3727 68.1832 49.3727 63.5C49.3727 58.8168 48.6024 55.3044 47.0617 52.9628C45.5211 50.5744 43.0701 49.3802 39.7088 49.3802C36.3474 49.3802 33.8964 50.5744 32.3558 52.9628C30.8152 55.3044 30.0449 58.8168 30.0449 63.5C30.0449 68.1832 30.8152 71.719 32.3558 74.1074Z" fill="#DD8686"/>
<path d="M108 66.5909V77.7603H101.347V88.0868H89.4425V77.7603L65.983 77.8306V66.5909L83.7702 38.9132H101.347V66.5909H108ZM78.5181 66.5207H89.4425V50.0124H88.8823L78.5181 66.5207Z" fill="#DD8686"/>
</svg>
