<svg width="271" height="123" viewBox="0 0 271 123" fill="none" xmlns="http://www.w3.org/2000/svg">
<mask id="path-1-outside-1_43_2324" maskUnits="userSpaceOnUse" x="-1" y="20" width="271" height="83" fill="black">
<rect fill="white" x="-1" y="20" width="271" height="83"/>
<path d="M32.2811 80.3454H59.319V97H3.59821V84.5605L24.6734 66.1582C31.5957 60.0584 35.9136 56.0147 37.627 54.0271C39.409 52.0395 40.2999 49.9834 40.2999 47.8587C40.2999 45.8026 39.5803 44.0549 38.141 42.6156C36.7703 41.1078 34.5771 40.3539 31.5614 40.3539C25.9414 40.3539 22.7544 43.6094 22.0005 50.1205H4.42066C4.69481 42.1016 7.40203 35.6934 12.5423 30.8958C17.7512 26.0981 24.365 23.6993 32.3839 23.6993C40.1971 23.6993 46.3998 25.9611 50.9918 30.4845C55.6523 35.008 57.9826 40.5253 57.9826 47.0363C57.9826 49.2295 57.6399 51.3541 56.9545 53.4103C56.2691 55.3978 55.5495 57.1113 54.7956 58.5506C54.0417 59.9213 52.6024 61.7033 50.4777 63.8965C48.4216 66.0211 46.7767 67.6318 45.543 68.7284C44.3779 69.7564 42.2533 71.6412 39.1691 74.3827L32.4867 80.2426L32.2811 80.3454ZM74.5897 33.8771C80.2783 27.0919 88.0573 23.6993 97.9267 23.6993C107.796 23.6993 115.575 27.0919 121.264 33.8771C126.952 40.6623 129.797 49.7093 129.797 61.0179C129.797 72.3266 126.952 81.3735 121.264 88.1587C115.575 94.9439 107.796 98.3365 97.9267 98.3365C88.0573 98.3365 80.2783 94.9439 74.5897 88.1587C68.9011 81.3735 66.0568 72.3266 66.0568 61.0179C66.0568 49.7093 68.9011 40.6623 74.5897 33.8771ZM87.1321 76.5416C89.3938 79.9685 92.992 81.6819 97.9267 81.6819C102.861 81.6819 106.46 79.9685 108.721 76.5416C110.983 73.0462 112.114 67.8716 112.114 61.0179C112.114 54.1642 110.983 49.0239 108.721 45.597C106.46 42.1016 102.861 40.3539 97.9267 40.3539C92.992 40.3539 89.3938 42.1016 87.1321 45.597C84.8703 49.0239 83.7395 54.1642 83.7395 61.0179C83.7395 67.8716 84.8703 73.0462 87.1321 76.5416ZM146.574 33.8771C152.263 27.0919 160.042 23.6993 169.911 23.6993C179.78 23.6993 187.559 27.0919 193.248 33.8771C198.937 40.6623 201.781 49.7093 201.781 61.0179C201.781 72.3266 198.937 81.3735 193.248 88.1587C187.559 94.9439 179.78 98.3365 169.911 98.3365C160.042 98.3365 152.263 94.9439 146.574 88.1587C140.885 81.3735 138.041 72.3266 138.041 61.0179C138.041 49.7093 140.885 40.6623 146.574 33.8771ZM159.116 76.5416C161.378 79.9685 164.976 81.6819 169.911 81.6819C174.846 81.6819 178.444 79.9685 180.706 76.5416C182.967 73.0462 184.098 67.8716 184.098 61.0179C184.098 54.1642 182.967 49.0239 180.706 45.597C178.444 42.1016 174.846 40.3539 169.911 40.3539C164.976 40.3539 161.378 42.1016 159.116 45.597C156.855 49.0239 155.724 54.1642 155.724 61.0179C155.724 67.8716 156.855 73.0462 159.116 76.5416ZM243.026 47.7559C249.332 47.7559 254.78 49.7778 259.372 53.8215C263.964 57.8652 266.26 63.6223 266.26 71.0929C266.26 79.1803 263.553 85.7599 258.139 90.8316C252.724 95.8349 246.007 98.3365 237.989 98.3365C230.038 98.3365 223.287 95.8349 217.736 90.8316C212.253 85.8284 209.511 79.3516 209.511 71.4013C209.511 69.2081 209.683 67.0835 210.025 65.0273C210.437 62.9712 211.191 60.7438 212.287 58.345C213.384 55.9461 214.309 53.9586 215.063 52.3822C215.817 50.7373 217.188 48.5098 219.175 45.6998C221.231 42.8213 222.705 40.7309 223.596 39.4287C224.555 38.1264 226.372 35.7276 229.044 32.2322C231.786 28.6683 233.636 26.2695 234.596 25.0358H255.26L236.035 49.0924C238.091 48.2014 240.422 47.7559 243.026 47.7559ZM230.175 78.8033C232.163 80.7224 234.733 81.6819 237.886 81.6819C241.039 81.6819 243.609 80.7224 245.596 78.8033C247.584 76.8843 248.578 74.3141 248.578 71.0929C248.578 67.9402 247.584 65.4728 245.596 63.6909C243.677 61.8404 241.107 60.9151 237.886 60.9151C234.665 60.9151 232.06 61.8404 230.073 63.6909C228.153 65.4728 227.194 67.9402 227.194 71.0929C227.194 74.3141 228.188 76.8843 230.175 78.8033Z"/>
</mask>
<path d="M32.2811 80.3454L30.6391 77.0614L32.2811 84.0171V80.3454ZM59.319 80.3454H62.9907V76.6738H59.319V80.3454ZM59.319 97V100.672H62.9907V97H59.319ZM3.59821 97H-0.0734329V100.672H3.59821V97ZM3.59821 84.5605L1.18328 81.7948L-0.0734329 82.8921V84.5605H3.59821ZM24.6734 66.1582L27.0884 68.9239L27.0946 68.9184L27.1009 68.9129L24.6734 66.1582ZM37.627 54.0271L34.8932 51.5761L34.8694 51.6027L34.8461 51.6297L37.627 54.0271ZM38.141 42.6156L35.4242 45.0855L35.483 45.1501L35.5448 45.2119L38.141 42.6156ZM22.0005 50.1205V53.7921H25.2715L25.6478 50.5428L22.0005 50.1205ZM4.42066 50.1205L0.751159 49.995L0.621344 53.7921H4.42066V50.1205ZM12.5423 30.8958L10.0549 28.1951L10.046 28.2033L10.0371 28.2116L12.5423 30.8958ZM50.9918 30.4845L48.4151 33.1002L48.4248 33.1098L48.4346 33.1192L50.9918 30.4845ZM56.9545 53.4103L60.4256 54.6072L60.4318 54.5893L60.4377 54.5713L56.9545 53.4103ZM54.7956 58.5506L58.0127 60.32L58.0307 60.2873L58.048 60.2542L54.7956 58.5506ZM50.4777 63.8965L47.8406 61.3418L47.8393 61.3431L50.4777 63.8965ZM45.543 68.7284L47.9723 71.4815L47.9824 71.4726L45.543 68.7284ZM39.1691 74.3827L41.5899 77.1432L41.5992 77.1351L41.6084 77.1269L39.1691 74.3827ZM32.4867 80.2426L34.1287 83.5266L34.5518 83.3151L34.9075 83.0032L32.4867 80.2426ZM32.2811 84.0171H59.319V76.6738H32.2811V84.0171ZM55.6474 80.3454V97H62.9907V80.3454H55.6474ZM59.319 93.3284H3.59821V100.672H59.319V93.3284ZM7.26985 97V84.5605H-0.0734329V97H7.26985ZM6.01314 87.3262L27.0884 68.9239L22.2585 63.3925L1.18328 81.7948L6.01314 87.3262ZM27.1009 68.9129C33.9692 62.8606 38.4967 58.6415 40.4079 56.4245L34.8461 51.6297C33.3305 53.3878 29.2222 57.2561 22.246 63.4035L27.1009 68.9129ZM40.3608 56.4781C42.586 53.9961 43.9716 51.1028 43.9716 47.8587H36.6283C36.6283 48.864 36.2319 50.0829 34.8932 51.5761L40.3608 56.4781ZM43.9716 47.8587C43.9716 44.84 42.8729 42.1551 40.7373 40.0194L35.5448 45.2119C36.2877 45.9548 36.6283 46.7653 36.6283 47.8587H43.9716ZM40.8578 40.1458C38.5137 37.5674 35.1109 36.6823 31.5614 36.6823V44.0256C34.0433 44.0256 35.0268 44.6483 35.4242 45.0855L40.8578 40.1458ZM31.5614 36.6823C28.0096 36.6823 24.7713 37.7358 22.3324 40.2271C19.9667 42.6437 18.784 45.9778 18.3532 49.6982L25.6478 50.5428C25.9709 47.7521 26.7586 46.2029 27.5799 45.364C28.328 44.5998 29.4932 44.0256 31.5614 44.0256V36.6823ZM22.0005 46.4488H4.42066V53.7921H22.0005V46.4488ZM8.09015 50.2459C8.33613 43.0513 10.7217 37.6174 15.0476 33.5799L10.0371 28.2116C4.08236 33.7693 1.05349 41.1519 0.751159 49.995L8.09015 50.2459ZM15.0298 33.5964C19.47 29.5067 25.1554 27.371 32.3839 27.371V20.0277C23.5746 20.0277 16.0323 22.6895 10.0549 28.1951L15.0298 33.5964ZM32.3839 27.371C39.4506 27.371 44.6509 29.3922 48.4151 33.1002L53.5684 27.8688C48.1486 22.5299 40.9436 20.0277 32.3839 20.0277V27.371ZM48.4346 33.1192C52.3807 36.9493 54.3109 41.5152 54.3109 47.0363H61.6542C61.6542 39.5353 58.9239 33.0667 53.549 27.8498L48.4346 33.1192ZM54.3109 47.0363C54.3109 48.8396 54.0304 50.572 53.4713 52.2492L60.4377 54.5713C61.2494 52.1363 61.6542 49.6193 61.6542 47.0363H54.3109ZM53.4834 52.2133C52.8417 54.0745 52.191 55.6101 51.5431 56.8469L58.048 60.2542C58.908 58.6124 59.6966 56.7212 60.4256 54.6072L53.4834 52.2133ZM51.5784 56.7811C51.0683 57.7086 49.9103 59.2053 47.8406 61.3418L53.1149 66.4512C55.2945 64.2012 57.015 62.1341 58.0127 60.32L51.5784 56.7811ZM47.8393 61.3431C45.8057 63.4445 44.2352 64.9784 43.1037 65.9841L47.9824 71.4726C49.3183 70.2851 51.0375 68.5977 53.1162 66.4498L47.8393 61.3431ZM43.1138 65.9752C41.943 67.0083 39.8136 68.8973 36.7298 71.6385L41.6084 77.1269C44.6929 74.3851 46.8129 72.5045 47.9723 71.4815L43.1138 65.9752ZM36.7483 71.6221L30.0659 77.4821L34.9075 83.0032L41.5899 77.1432L36.7483 71.6221ZM30.8447 76.9586L30.6391 77.0614L33.9231 83.6294L34.1287 83.5266L30.8447 76.9586ZM74.5897 33.8771L77.4034 36.236L77.4034 36.236L74.5897 33.8771ZM121.264 33.8771L118.45 36.236V36.236L121.264 33.8771ZM121.264 88.1587L118.45 85.7998L121.264 88.1587ZM74.5897 88.1587L71.7761 90.5176L74.5897 88.1587ZM87.1321 76.5416L84.0495 78.5362L84.0585 78.5502L84.0677 78.5641L87.1321 76.5416ZM108.721 76.5416L111.786 78.5641L111.795 78.5502L111.804 78.5362L108.721 76.5416ZM108.721 45.597L105.639 47.5916L105.648 47.6056L105.657 47.6195L108.721 45.597ZM87.1321 45.597L90.1965 47.6195L90.2056 47.6056L90.2147 47.5916L87.1321 45.597ZM77.4034 36.236C82.309 30.3848 89.0029 27.371 97.9267 27.371V20.0277C87.1118 20.0277 78.2477 23.7991 71.7761 31.5182L77.4034 36.236ZM97.9267 27.371C106.851 27.371 113.544 30.3848 118.45 36.236L124.077 31.5182C117.606 23.7991 108.742 20.0277 97.9267 20.0277V27.371ZM118.45 36.236C123.445 42.1943 126.125 50.3275 126.125 61.0179H133.468C133.468 49.091 130.459 39.1303 124.077 31.5182L118.45 36.236ZM126.125 61.0179C126.125 71.7083 123.445 79.8415 118.45 85.7998L124.077 90.5176C130.459 82.9055 133.468 72.9448 133.468 61.0179H126.125ZM118.45 85.7998C113.544 91.651 106.851 94.6648 97.9267 94.6648V102.008C108.742 102.008 117.606 98.2367 124.077 90.5176L118.45 85.7998ZM97.9267 94.6648C89.0029 94.6648 82.309 91.651 77.4034 85.7998L71.7761 90.5176C78.2477 98.2367 87.1118 102.008 97.9267 102.008V94.6648ZM77.4034 85.7998C72.4081 79.8415 69.7285 71.7083 69.7285 61.0179H62.3852C62.3852 72.9448 65.3942 82.9055 71.7761 90.5176L77.4034 85.7998ZM69.7285 61.0179C69.7285 50.3275 72.4081 42.1943 77.4034 36.236L71.7761 31.5182C65.3942 39.1303 62.3852 49.091 62.3852 61.0179H69.7285ZM84.0677 78.5641C87.1529 83.2387 92.0448 85.3536 97.9267 85.3536V78.0103C93.9392 78.0103 91.6347 76.6982 90.1965 74.5191L84.0677 78.5641ZM97.9267 85.3536C103.809 85.3536 108.7 83.2387 111.786 78.5641L105.657 74.5191C104.219 76.6982 101.914 78.0103 97.9267 78.0103V85.3536ZM111.804 78.5362C114.625 74.176 115.786 68.1674 115.786 61.0179H108.442C108.442 67.5758 107.341 71.9165 105.639 74.547L111.804 78.5362ZM115.786 61.0179C115.786 53.8768 114.628 47.8817 111.786 43.5745L105.657 47.6195C107.338 50.1661 108.442 54.4515 108.442 61.0179H115.786ZM111.804 43.6024C108.732 38.8549 103.839 36.6823 97.9267 36.6823V44.0256C101.884 44.0256 104.187 45.3483 105.639 47.5916L111.804 43.6024ZM97.9267 36.6823C92.0142 36.6823 87.1214 38.8549 84.0495 43.6024L90.2147 47.5916C91.6662 45.3483 93.9698 44.0256 97.9267 44.0256V36.6823ZM84.0677 43.5745C81.225 47.8817 80.0678 53.8768 80.0678 61.0179H87.4111C87.4111 54.4515 88.5157 50.1661 90.1965 47.6195L84.0677 43.5745ZM80.0678 61.0179C80.0678 68.1674 81.2281 74.176 84.0495 78.5362L90.2147 74.547C88.5126 71.9165 87.4111 67.5758 87.4111 61.0179H80.0678ZM146.574 33.8771L149.388 36.236V36.236L146.574 33.8771ZM193.248 33.8771L190.434 36.236V36.236L193.248 33.8771ZM193.248 88.1587L190.434 85.7998L193.248 88.1587ZM146.574 88.1587L143.76 90.5176L146.574 88.1587ZM159.116 76.5416L156.034 78.5362L156.043 78.5502L156.052 78.5641L159.116 76.5416ZM180.706 76.5416L183.77 78.5641L183.779 78.5502L183.788 78.5362L180.706 76.5416ZM180.706 45.597L177.623 47.5916L177.632 47.6056L177.641 47.6195L180.706 45.597ZM159.116 45.597L162.181 47.6195L162.19 47.6056L162.199 47.5916L159.116 45.597ZM149.388 36.236C154.293 30.3848 160.987 27.371 169.911 27.371V20.0277C159.096 20.0277 150.232 23.7991 143.76 31.5182L149.388 36.236ZM169.911 27.371C178.835 27.371 185.529 30.3848 190.434 36.236L196.062 31.5182C189.59 23.7991 180.726 20.0277 169.911 20.0277V27.371ZM190.434 36.236C195.43 42.1943 198.109 50.3275 198.109 61.0179H205.452C205.452 49.091 202.443 39.1303 196.062 31.5182L190.434 36.236ZM198.109 61.0179C198.109 71.7083 195.43 79.8415 190.434 85.7998L196.062 90.5176C202.443 82.9055 205.452 72.9448 205.452 61.0179H198.109ZM190.434 85.7998C185.529 91.651 178.835 94.6648 169.911 94.6648V102.008C180.726 102.008 189.59 98.2367 196.062 90.5176L190.434 85.7998ZM169.911 94.6648C160.987 94.6648 154.293 91.651 149.388 85.7998L143.76 90.5176C150.232 98.2367 159.096 102.008 169.911 102.008V94.6648ZM149.388 85.7998C144.392 79.8415 141.713 71.7083 141.713 61.0179H134.369C134.369 72.9448 137.378 82.9055 143.76 90.5176L149.388 85.7998ZM141.713 61.0179C141.713 50.3275 144.392 42.1943 149.388 36.236L143.76 31.5182C137.378 39.1303 134.369 49.091 134.369 61.0179H141.713ZM156.052 78.5641C159.137 83.2387 164.029 85.3536 169.911 85.3536V78.0103C165.923 78.0103 163.619 76.6982 162.181 74.5191L156.052 78.5641ZM169.911 85.3536C175.793 85.3536 180.685 83.2387 183.77 78.5641L177.641 74.5191C176.203 76.6982 173.898 78.0103 169.911 78.0103V85.3536ZM183.788 78.5362C186.61 74.176 187.77 68.1674 187.77 61.0179H180.427C180.427 67.5758 179.325 71.9165 177.623 74.547L183.788 78.5362ZM187.77 61.0179C187.77 53.8768 186.613 47.8817 183.77 43.5745L177.641 47.6195C179.322 50.1661 180.427 54.4515 180.427 61.0179H187.77ZM183.788 43.6024C180.716 38.8549 175.823 36.6823 169.911 36.6823V44.0256C173.868 44.0256 176.171 45.3483 177.623 47.5916L183.788 43.6024ZM169.911 36.6823C163.998 36.6823 159.106 38.8549 156.034 43.6024L162.199 47.5916C163.65 45.3483 165.954 44.0256 169.911 44.0256V36.6823ZM156.052 43.5745C153.209 47.8817 152.052 53.8768 152.052 61.0179H159.395C159.395 54.4515 160.5 50.1661 162.181 47.6195L156.052 43.5745ZM152.052 61.0179C152.052 68.1674 153.212 74.176 156.034 78.5362L162.199 74.547C160.497 71.9165 159.395 67.5758 159.395 61.0179H152.052ZM259.372 53.8215L261.799 51.066L259.372 53.8215ZM258.139 90.8316L260.63 93.5283L260.64 93.5198L260.649 93.5113L258.139 90.8316ZM217.736 90.8316L215.261 93.5438L215.269 93.5515L215.278 93.5591L217.736 90.8316ZM210.025 65.0273L206.425 64.3073L206.413 64.3653L206.404 64.4237L210.025 65.0273ZM215.063 52.3822L218.375 53.9664L218.388 53.9393L218.401 53.912L215.063 52.3822ZM219.175 45.6998L216.187 43.5657L216.182 43.5726L216.178 43.5796L219.175 45.6998ZM223.596 39.4287L220.64 37.2506L220.602 37.3023L220.566 37.3553L223.596 39.4287ZM229.044 32.2322L226.134 29.9936L226.128 30.0019L229.044 32.2322ZM234.596 25.0358V21.3642H232.8L231.698 22.7816L234.596 25.0358ZM255.26 25.0358L258.128 27.328L262.894 21.3642H255.26V25.0358ZM236.035 49.0924L233.167 46.8003L237.495 52.4613L236.035 49.0924ZM230.175 78.8033L227.625 81.4447L230.175 78.8033ZM245.596 78.8033L243.046 76.162L245.596 78.8033ZM245.596 63.6909L243.048 66.3339L243.096 66.3802L243.145 66.4247L245.596 63.6909ZM230.073 63.6909L232.571 66.3814L232.574 66.3781L230.073 63.6909ZM243.026 51.4276C248.468 51.4276 253.046 53.1432 256.946 56.577L261.799 51.066C256.514 46.4124 250.195 44.0843 243.026 44.0843V51.4276ZM256.946 56.577C260.574 59.7722 262.589 64.4238 262.589 71.0929H269.932C269.932 62.8209 267.354 55.9582 261.799 51.066L256.946 56.577ZM262.589 71.0929C262.589 78.2667 260.231 83.8411 255.629 88.152L260.649 93.5113C266.875 87.6787 269.932 80.0939 269.932 71.0929H262.589ZM255.647 88.135C250.973 92.4539 245.172 94.6648 237.989 94.6648V102.008C246.843 102.008 254.475 99.2158 260.63 93.5283L255.647 88.135ZM237.989 94.6648C230.883 94.6648 225.025 92.4586 220.194 88.1042L215.278 93.5591C221.549 99.2112 229.194 102.008 237.989 102.008V94.6648ZM220.211 88.1195C215.549 83.8656 213.183 78.402 213.183 71.4013H205.84C205.84 80.3013 208.957 87.7912 215.261 93.5438L220.211 88.1195ZM213.183 71.4013C213.183 69.3999 213.339 67.4775 213.647 65.631L206.404 64.4237C206.026 66.6894 205.84 69.0163 205.84 71.4013H213.183ZM213.626 65.7474C213.969 64.0298 214.619 62.0753 215.626 59.8715L208.948 56.8184C207.762 59.4122 206.904 61.9127 206.425 64.3073L213.626 65.7474ZM215.626 59.8715C216.718 57.4833 217.634 55.5166 218.375 53.9664L211.751 50.7981C210.984 52.4005 210.049 54.409 208.948 56.8184L215.626 59.8715ZM218.401 53.912C219.01 52.5834 220.222 50.5786 222.173 47.8201L216.178 43.5796C214.153 46.4411 212.624 48.8912 211.725 50.8524L218.401 53.912ZM222.163 47.8339C224.22 44.9536 225.712 42.8372 226.626 41.502L220.566 37.3553C219.697 38.6245 218.242 40.6889 216.187 43.5657L222.163 47.8339ZM226.552 41.6067C227.489 40.3345 229.286 37.9604 231.961 34.4626L226.128 30.0019C223.457 33.4949 221.622 35.9184 220.64 37.2506L226.552 41.6067ZM231.955 34.4709C234.697 30.9059 236.542 28.5147 237.494 27.29L231.698 22.7816C230.731 24.0243 228.875 26.4307 226.134 29.9936L231.955 34.4709ZM234.596 28.7075H255.26V21.3642H234.596V28.7075ZM252.392 22.7437L233.167 46.8003L238.904 51.3846L258.128 27.328L252.392 22.7437ZM237.495 52.4613C239.022 51.7998 240.843 51.4276 243.026 51.4276V44.0843C240 44.0843 237.161 44.6031 234.575 45.7235L237.495 52.4613ZM227.625 81.4447C230.395 84.1191 233.927 85.3536 237.886 85.3536V78.0103C235.539 78.0103 233.931 77.3257 232.726 76.162L227.625 81.4447ZM237.886 85.3536C241.845 85.3536 245.377 84.1191 248.147 81.4447L243.046 76.162C241.841 77.3257 240.232 78.0103 237.886 78.0103V85.3536ZM248.147 81.4447C250.97 78.7183 252.249 75.1308 252.249 71.0929H244.906C244.906 73.4975 244.197 75.0503 243.046 76.162L248.147 81.4447ZM252.249 71.0929C252.249 67.1037 250.953 63.5625 248.047 60.9571L243.145 66.4247C244.214 67.3831 244.906 68.7767 244.906 71.0929H252.249ZM248.145 61.0479C245.404 58.4046 241.847 57.2435 237.886 57.2435V64.5867C240.367 64.5867 241.951 65.2761 243.048 66.3339L248.145 61.0479ZM237.886 57.2435C233.92 57.2435 230.361 58.4055 227.571 61.0036L232.574 66.3781C233.759 65.2752 235.409 64.5867 237.886 64.5867V57.2435ZM227.574 61.0003C224.757 63.6167 223.522 67.1444 223.522 71.0929H230.866C230.866 68.7359 231.55 67.329 232.571 66.3814L227.574 61.0003ZM223.522 71.0929C223.522 75.1308 224.801 78.7183 227.625 81.4447L232.726 76.162C231.574 75.0503 230.866 73.4975 230.866 71.0929H223.522Z" fill="#EBB6B6" mask="url(#path-1-outside-1_43_2324)"/>
</svg>
