<svg width="271" height="123" viewBox="0 0 271 123" fill="none" xmlns="http://www.w3.org/2000/svg">
<mask id="path-1-outside-1_43_2345" maskUnits="userSpaceOnUse" x="-1" y="20" width="264" height="83" fill="black">
<rect fill="white" x="-1" y="20" width="264" height="83"/>
<path d="M32.2811 80.3454H59.319V97H3.59821V84.5605L24.6734 66.1582C31.5957 60.0584 35.9136 56.0147 37.627 54.0271C39.409 52.0395 40.2999 49.9834 40.2999 47.8587C40.2999 45.8026 39.5803 44.0549 38.141 42.6156C36.7703 41.1078 34.5771 40.3539 31.5614 40.3539C25.9414 40.3539 22.7544 43.6094 22.0005 50.1205H4.42066C4.69481 42.1016 7.40203 35.6934 12.5423 30.8958C17.7512 26.0981 24.365 23.6993 32.3839 23.6993C40.1971 23.6993 46.3998 25.9611 50.9918 30.4845C55.6523 35.008 57.9826 40.5253 57.9826 47.0363C57.9826 49.2295 57.6399 51.3541 56.9545 53.4103C56.2691 55.3978 55.5495 57.1113 54.7956 58.5506C54.0417 59.9213 52.6024 61.7033 50.4777 63.8965C48.4216 66.0211 46.7767 67.6318 45.543 68.7284C44.3779 69.7564 42.2533 71.6412 39.1691 74.3827L32.4867 80.2426L32.2811 80.3454ZM74.5897 33.8771C80.2783 27.0919 88.0573 23.6993 97.9267 23.6993C107.796 23.6993 115.575 27.0919 121.264 33.8771C126.952 40.6623 129.797 49.7093 129.797 61.0179C129.797 72.3266 126.952 81.3735 121.264 88.1587C115.575 94.9439 107.796 98.3365 97.9267 98.3365C88.0573 98.3365 80.2783 94.9439 74.5897 88.1587C68.9011 81.3735 66.0568 72.3266 66.0568 61.0179C66.0568 49.7093 68.9011 40.6623 74.5897 33.8771ZM87.1321 76.5416C89.3938 79.9685 92.992 81.6819 97.9267 81.6819C102.861 81.6819 106.46 79.9685 108.721 76.5416C110.983 73.0462 112.114 67.8716 112.114 61.0179C112.114 54.1642 110.983 49.0239 108.721 45.597C106.46 42.1016 102.861 40.3539 97.9267 40.3539C92.992 40.3539 89.3938 42.1016 87.1321 45.597C84.8703 49.0239 83.7395 54.1642 83.7395 61.0179C83.7395 67.8716 84.8703 73.0462 87.1321 76.5416ZM164.202 80.3454H191.24V97H135.519V84.5605L156.594 66.1582C163.517 60.0584 167.834 56.0147 169.548 54.0271C171.33 52.0395 172.221 49.9834 172.221 47.8587C172.221 45.8026 171.501 44.0549 170.062 42.6156C168.691 41.1078 166.498 40.3539 163.482 40.3539C157.862 40.3539 154.675 43.6094 153.921 50.1205H136.342C136.616 42.1016 139.323 35.6934 144.463 30.8958C149.672 26.0981 156.286 23.6993 164.305 23.6993C172.118 23.6993 178.321 25.9611 182.913 30.4845C187.573 35.008 189.903 40.5253 189.903 47.0363C189.903 49.2295 189.561 51.3541 188.875 53.4103C188.19 55.3978 187.47 57.1113 186.717 58.5506C185.963 59.9213 184.523 61.7033 182.399 63.8965C180.343 66.0211 178.698 67.6318 177.464 68.7284C176.299 69.7564 174.174 71.6412 171.09 74.3827L164.408 80.2426L164.202 80.3454ZM259.123 65.5414V81.8875H249.357V97H231.88V81.8875L197.44 81.9903V65.5414L223.552 25.0358H249.357V65.5414H259.123ZM215.842 65.4386H231.88V41.2792H231.057L215.842 65.4386Z"/>
</mask>
<path d="M32.2811 80.3454L30.6391 77.0614L32.2811 84.0171V80.3454ZM59.319 80.3454H62.9907V76.6738H59.319V80.3454ZM59.319 97V100.672H62.9907V97H59.319ZM3.59821 97H-0.0734329V100.672H3.59821V97ZM3.59821 84.5605L1.18328 81.7948L-0.0734329 82.8921V84.5605H3.59821ZM24.6734 66.1582L27.0884 68.9239L27.0946 68.9184L27.1009 68.9129L24.6734 66.1582ZM37.627 54.0271L34.8932 51.5761L34.8694 51.6027L34.8461 51.6297L37.627 54.0271ZM38.141 42.6156L35.4242 45.0855L35.483 45.1501L35.5448 45.2119L38.141 42.6156ZM22.0005 50.1205V53.7921H25.2715L25.6478 50.5428L22.0005 50.1205ZM4.42066 50.1205L0.751159 49.995L0.621344 53.7921H4.42066V50.1205ZM12.5423 30.8958L10.0549 28.1951L10.046 28.2033L10.0371 28.2116L12.5423 30.8958ZM50.9918 30.4845L48.4151 33.1002L48.4248 33.1098L48.4346 33.1192L50.9918 30.4845ZM56.9545 53.4103L60.4256 54.6072L60.4318 54.5893L60.4377 54.5713L56.9545 53.4103ZM54.7956 58.5506L58.0127 60.32L58.0307 60.2873L58.048 60.2542L54.7956 58.5506ZM50.4777 63.8965L47.8406 61.3418L47.8393 61.3431L50.4777 63.8965ZM45.543 68.7284L47.9723 71.4815L47.9824 71.4726L45.543 68.7284ZM39.1691 74.3827L41.5899 77.1432L41.5992 77.1351L41.6084 77.1269L39.1691 74.3827ZM32.4867 80.2426L34.1287 83.5266L34.5518 83.3151L34.9075 83.0032L32.4867 80.2426ZM32.2811 84.0171H59.319V76.6738H32.2811V84.0171ZM55.6474 80.3454V97H62.9907V80.3454H55.6474ZM59.319 93.3284H3.59821V100.672H59.319V93.3284ZM7.26985 97V84.5605H-0.0734329V97H7.26985ZM6.01314 87.3262L27.0884 68.9239L22.2585 63.3925L1.18328 81.7948L6.01314 87.3262ZM27.1009 68.9129C33.9692 62.8606 38.4967 58.6415 40.4079 56.4245L34.8461 51.6297C33.3305 53.3878 29.2222 57.2561 22.246 63.4035L27.1009 68.9129ZM40.3608 56.4781C42.586 53.9961 43.9716 51.1028 43.9716 47.8587H36.6283C36.6283 48.864 36.2319 50.0829 34.8932 51.5761L40.3608 56.4781ZM43.9716 47.8587C43.9716 44.84 42.8729 42.1551 40.7373 40.0194L35.5448 45.2119C36.2877 45.9548 36.6283 46.7653 36.6283 47.8587H43.9716ZM40.8578 40.1458C38.5137 37.5674 35.1109 36.6823 31.5614 36.6823V44.0256C34.0433 44.0256 35.0268 44.6483 35.4242 45.0855L40.8578 40.1458ZM31.5614 36.6823C28.0096 36.6823 24.7713 37.7358 22.3324 40.2271C19.9667 42.6437 18.784 45.9778 18.3532 49.6982L25.6478 50.5428C25.9709 47.7521 26.7586 46.2029 27.5799 45.364C28.328 44.5998 29.4932 44.0256 31.5614 44.0256V36.6823ZM22.0005 46.4488H4.42066V53.7921H22.0005V46.4488ZM8.09015 50.2459C8.33613 43.0513 10.7217 37.6174 15.0476 33.5799L10.0371 28.2116C4.08236 33.7693 1.05349 41.1519 0.751159 49.995L8.09015 50.2459ZM15.0298 33.5964C19.47 29.5067 25.1554 27.371 32.3839 27.371V20.0277C23.5746 20.0277 16.0323 22.6895 10.0549 28.1951L15.0298 33.5964ZM32.3839 27.371C39.4506 27.371 44.6509 29.3922 48.4151 33.1002L53.5684 27.8688C48.1486 22.5299 40.9436 20.0277 32.3839 20.0277V27.371ZM48.4346 33.1192C52.3807 36.9493 54.3109 41.5152 54.3109 47.0363H61.6542C61.6542 39.5353 58.9239 33.0667 53.549 27.8498L48.4346 33.1192ZM54.3109 47.0363C54.3109 48.8396 54.0304 50.572 53.4713 52.2492L60.4377 54.5713C61.2494 52.1363 61.6542 49.6193 61.6542 47.0363H54.3109ZM53.4834 52.2133C52.8417 54.0745 52.191 55.6101 51.5431 56.8469L58.048 60.2542C58.908 58.6124 59.6966 56.7212 60.4256 54.6072L53.4834 52.2133ZM51.5784 56.7811C51.0683 57.7086 49.9103 59.2053 47.8406 61.3418L53.1149 66.4512C55.2945 64.2012 57.015 62.1341 58.0127 60.32L51.5784 56.7811ZM47.8393 61.3431C45.8057 63.4445 44.2352 64.9784 43.1037 65.9841L47.9824 71.4726C49.3183 70.2851 51.0375 68.5977 53.1162 66.4498L47.8393 61.3431ZM43.1138 65.9752C41.943 67.0083 39.8136 68.8973 36.7298 71.6385L41.6084 77.1269C44.6929 74.3851 46.8129 72.5045 47.9723 71.4815L43.1138 65.9752ZM36.7483 71.6221L30.0659 77.4821L34.9075 83.0032L41.5899 77.1432L36.7483 71.6221ZM30.8447 76.9586L30.6391 77.0614L33.9231 83.6294L34.1287 83.5266L30.8447 76.9586ZM74.5897 33.8771L77.4034 36.236L77.4034 36.236L74.5897 33.8771ZM121.264 33.8771L118.45 36.236V36.236L121.264 33.8771ZM121.264 88.1587L118.45 85.7998L121.264 88.1587ZM74.5897 88.1587L71.7761 90.5176L74.5897 88.1587ZM87.1321 76.5416L84.0495 78.5362L84.0585 78.5502L84.0677 78.5641L87.1321 76.5416ZM108.721 76.5416L111.786 78.5641L111.795 78.5502L111.804 78.5362L108.721 76.5416ZM108.721 45.597L105.639 47.5916L105.648 47.6056L105.657 47.6195L108.721 45.597ZM87.1321 45.597L90.1965 47.6195L90.2056 47.6056L90.2147 47.5916L87.1321 45.597ZM77.4034 36.236C82.309 30.3848 89.0029 27.371 97.9267 27.371V20.0277C87.1118 20.0277 78.2477 23.7991 71.7761 31.5182L77.4034 36.236ZM97.9267 27.371C106.851 27.371 113.544 30.3848 118.45 36.236L124.077 31.5182C117.606 23.7991 108.742 20.0277 97.9267 20.0277V27.371ZM118.45 36.236C123.445 42.1943 126.125 50.3275 126.125 61.0179H133.468C133.468 49.091 130.459 39.1303 124.077 31.5182L118.45 36.236ZM126.125 61.0179C126.125 71.7083 123.445 79.8415 118.45 85.7998L124.077 90.5176C130.459 82.9055 133.468 72.9448 133.468 61.0179H126.125ZM118.45 85.7998C113.544 91.651 106.851 94.6648 97.9267 94.6648V102.008C108.742 102.008 117.606 98.2367 124.077 90.5176L118.45 85.7998ZM97.9267 94.6648C89.0029 94.6648 82.309 91.651 77.4034 85.7998L71.7761 90.5176C78.2477 98.2367 87.1118 102.008 97.9267 102.008V94.6648ZM77.4034 85.7998C72.4081 79.8415 69.7285 71.7083 69.7285 61.0179H62.3852C62.3852 72.9448 65.3942 82.9055 71.7761 90.5176L77.4034 85.7998ZM69.7285 61.0179C69.7285 50.3275 72.4081 42.1943 77.4034 36.236L71.7761 31.5182C65.3942 39.1303 62.3852 49.091 62.3852 61.0179H69.7285ZM84.0677 78.5641C87.1529 83.2387 92.0448 85.3536 97.9267 85.3536V78.0103C93.9392 78.0103 91.6347 76.6982 90.1965 74.5191L84.0677 78.5641ZM97.9267 85.3536C103.809 85.3536 108.7 83.2387 111.786 78.5641L105.657 74.5191C104.219 76.6982 101.914 78.0103 97.9267 78.0103V85.3536ZM111.804 78.5362C114.625 74.176 115.786 68.1674 115.786 61.0179H108.442C108.442 67.5758 107.341 71.9165 105.639 74.547L111.804 78.5362ZM115.786 61.0179C115.786 53.8768 114.628 47.8817 111.786 43.5745L105.657 47.6195C107.338 50.1661 108.442 54.4515 108.442 61.0179H115.786ZM111.804 43.6024C108.732 38.8549 103.839 36.6823 97.9267 36.6823V44.0256C101.884 44.0256 104.187 45.3483 105.639 47.5916L111.804 43.6024ZM97.9267 36.6823C92.0142 36.6823 87.1214 38.8549 84.0495 43.6024L90.2147 47.5916C91.6662 45.3483 93.9698 44.0256 97.9267 44.0256V36.6823ZM84.0677 43.5745C81.225 47.8817 80.0678 53.8768 80.0678 61.0179H87.4111C87.4111 54.4515 88.5157 50.1661 90.1965 47.6195L84.0677 43.5745ZM80.0678 61.0179C80.0678 68.1674 81.2281 74.176 84.0495 78.5362L90.2147 74.547C88.5126 71.9165 87.4111 67.5758 87.4111 61.0179H80.0678ZM164.202 80.3454L162.56 77.0614L164.202 84.0171V80.3454ZM191.24 80.3454H194.912V76.6738H191.24V80.3454ZM191.24 97V100.672H194.912V97H191.24ZM135.519 97H131.848V100.672H135.519V97ZM135.519 84.5605L133.104 81.7948L131.848 82.8921V84.5605H135.519ZM156.594 66.1582L159.009 68.9239L159.016 68.9184L159.022 68.9129L156.594 66.1582ZM169.548 54.0271L166.814 51.5761L166.79 51.6027L166.767 51.6297L169.548 54.0271ZM170.062 42.6156L167.345 45.0855L167.404 45.1501L167.466 45.2119L170.062 42.6156ZM153.921 50.1205V53.7921H157.192L157.569 50.5428L153.921 50.1205ZM136.342 50.1205L132.672 49.995L132.542 53.7921H136.342V50.1205ZM144.463 30.8958L141.976 28.1951L141.967 28.2033L141.958 28.2116L144.463 30.8958ZM182.913 30.4845L180.336 33.1002L180.346 33.1098L180.355 33.1192L182.913 30.4845ZM188.875 53.4103L192.347 54.6072L192.353 54.5893L192.359 54.5713L188.875 53.4103ZM186.717 58.5506L189.934 60.32L189.952 60.2873L189.969 60.2542L186.717 58.5506ZM182.399 63.8965L179.762 61.3418L179.76 61.3431L182.399 63.8965ZM177.464 68.7284L179.893 71.4815L179.903 71.4726L177.464 68.7284ZM171.09 74.3827L173.511 77.1432L173.52 77.1351L173.529 77.1269L171.09 74.3827ZM164.408 80.2426L166.05 83.5266L166.473 83.3151L166.828 83.0032L164.408 80.2426ZM164.202 84.0171H191.24V76.6738H164.202V84.0171ZM187.568 80.3454V97H194.912V80.3454H187.568ZM191.24 93.3284H135.519V100.672H191.24V93.3284ZM139.191 97V84.5605H131.848V97H139.191ZM137.934 87.3262L159.009 68.9239L154.179 63.3925L133.104 81.7948L137.934 87.3262ZM159.022 68.9129C165.89 62.8606 170.418 58.6415 172.329 56.4245L166.767 51.6297C165.251 53.3878 161.143 57.2561 154.167 63.4035L159.022 68.9129ZM172.282 56.4781C174.507 53.9961 175.893 51.1028 175.893 47.8587H168.549C168.549 48.864 168.153 50.0829 166.814 51.5761L172.282 56.4781ZM175.893 47.8587C175.893 44.84 174.794 42.1551 172.658 40.0194L167.466 45.2119C168.209 45.9548 168.549 46.7653 168.549 47.8587H175.893ZM172.779 40.1458C170.435 37.5674 167.032 36.6823 163.482 36.6823V44.0256C165.964 44.0256 166.948 44.6483 167.345 45.0855L172.779 40.1458ZM163.482 36.6823C159.931 36.6823 156.692 37.7358 154.253 40.2271C151.888 42.6437 150.705 45.9778 150.274 49.6982L157.569 50.5428C157.892 47.7521 158.68 46.2029 159.501 45.364C160.249 44.5998 161.414 44.0256 163.482 44.0256V36.6823ZM153.921 46.4488H136.342V53.7921H153.921V46.4488ZM140.011 50.2459C140.257 43.0513 142.643 37.6174 146.968 33.5799L141.958 28.2116C136.003 33.7693 132.974 41.1519 132.672 49.995L140.011 50.2459ZM146.951 33.5964C151.391 29.5067 157.076 27.371 164.305 27.371V20.0277C155.496 20.0277 147.953 22.6895 141.976 28.1951L146.951 33.5964ZM164.305 27.371C171.372 27.371 176.572 29.3922 180.336 33.1002L185.489 27.8688C180.07 22.5299 172.865 20.0277 164.305 20.0277V27.371ZM180.355 33.1192C184.302 36.9493 186.232 41.5152 186.232 47.0363H193.575C193.575 39.5353 190.845 33.0667 185.47 27.8498L180.355 33.1192ZM186.232 47.0363C186.232 48.8396 185.951 50.572 185.392 52.2492L192.359 54.5713C193.17 52.1363 193.575 49.6193 193.575 47.0363H186.232ZM185.404 52.2133C184.763 54.0745 184.112 55.6101 183.464 56.8469L189.969 60.2542C190.829 58.6124 191.618 56.7212 192.347 54.6072L185.404 52.2133ZM183.499 56.7811C182.989 57.7086 181.831 59.2053 179.762 61.3418L185.036 66.4512C187.215 64.2012 188.936 62.1341 189.934 60.32L183.499 56.7811ZM179.76 61.3431C177.727 63.4445 176.156 64.9784 175.025 65.9841L179.903 71.4726C181.239 70.2851 182.958 68.5977 185.037 66.4498L179.76 61.3431ZM175.035 65.9752C173.864 67.0083 171.735 68.8973 168.651 71.6385L173.529 77.1269C176.614 74.3851 178.734 72.5045 179.893 71.4815L175.035 65.9752ZM168.669 71.6221L161.987 77.4821L166.828 83.0032L173.511 77.1432L168.669 71.6221ZM162.766 76.9586L162.56 77.0614L165.844 83.6294L166.05 83.5266L162.766 76.9586ZM259.123 65.5414H262.795V61.8697H259.123V65.5414ZM259.123 81.8875V85.5592H262.795V81.8875H259.123ZM249.357 81.8875V78.2159H245.685V81.8875H249.357ZM249.357 97V100.672H253.028V97H249.357ZM231.88 97H228.208V100.672H231.88V97ZM231.88 81.8875H235.551V78.2049L231.869 78.2159L231.88 81.8875ZM197.44 81.9903H193.768V85.6729L197.451 85.6619L197.44 81.9903ZM197.44 65.5414L194.354 63.5519L193.768 64.4604V65.5414H197.44ZM223.552 25.0358V21.3642H221.551L220.466 23.0464L223.552 25.0358ZM249.357 25.0358H253.028V21.3642H249.357V25.0358ZM249.357 65.5414H245.685V69.213H249.357V65.5414ZM215.842 65.4386L212.735 63.4819L209.19 69.1102H215.842V65.4386ZM231.88 65.4386V69.1102H235.551V65.4386H231.88ZM231.88 41.2792H235.551V37.6075H231.88V41.2792ZM231.057 41.2792V37.6075H229.03L227.95 39.3225L231.057 41.2792ZM255.452 65.5414V81.8875H262.795V65.5414H255.452ZM259.123 78.2159H249.357V85.5592H259.123V78.2159ZM245.685 81.8875V97H253.028V81.8875H245.685ZM249.357 93.3284H231.88V100.672H249.357V93.3284ZM235.551 97V81.8875H228.208V97H235.551ZM231.869 78.2159L197.429 78.3187L197.451 85.6619L231.891 85.5592L231.869 78.2159ZM201.111 81.9903V65.5414H193.768V81.9903H201.111ZM200.526 67.5308L226.638 27.0252L220.466 23.0464L194.354 63.5519L200.526 67.5308ZM223.552 28.7075H249.357V21.3642H223.552V28.7075ZM245.685 25.0358V65.5414H253.028V25.0358H245.685ZM249.357 69.213H259.123V61.8697H249.357V69.213ZM215.842 69.1102H231.88V61.7669H215.842V69.1102ZM235.551 65.4386V41.2792H228.208V65.4386H235.551ZM231.88 37.6075H231.057V44.9508H231.88V37.6075ZM227.95 39.3225L212.735 63.4819L218.949 67.3952L234.164 43.2358L227.95 39.3225Z" fill="#EBB6B6" mask="url(#path-1-outside-1_43_2345)"/>
</svg>
