<svg width="227" height="20" viewBox="0 0 227 20" fill="none" xmlns="http://www.w3.org/2000/svg">
<path d="M14.5731 19.6419L13.2288 15.6474H6.18418L4.83979 19.6419H0L6.82948 0.358127H12.5835L19.4129 19.6419H14.5731ZM7.68989 11.1846H11.723L9.70647 5.17906L7.68989 11.1846Z" fill="url(#paint0_linear_151_279)"/>
<path d="M32.4121 19.6419L27.9756 12.9477H26.5506V19.6419H21.9797V0.358127H30.3686C32.3583 0.358127 33.9268 0.936639 35.074 2.09366C36.2391 3.23232 36.8217 4.80257 36.8217 6.80441C36.8217 9.76125 35.5669 11.6621 33.0574 12.5069L38.0047 19.6419H32.4121ZM32.197 6.8595C32.197 5.50046 31.4173 4.82094 29.8578 4.82094H26.5506V8.84298H29.8578C31.4173 8.84298 32.197 8.18182 32.197 6.8595Z" fill="url(#paint1_linear_151_279)"/>
<path d="M53.65 0.358127V4.82094H48.5145V19.6419H43.9436V4.82094H38.8349V0.358127H53.65Z" fill="url(#paint2_linear_151_279)"/>
<path d="M69.1531 4.82094H60.7641V7.87879H68.4003V12.3416H60.7641V19.6419H56.1932V0.358127H69.1531V4.82094Z" fill="url(#paint3_linear_151_279)"/>
<path d="M83.1862 0.358127H87.8378L87.8109 11.7631C87.8109 14.4077 87.076 16.4463 85.6061 17.8788C84.1542 19.2929 82.2541 20 79.9059 20C77.5577 20 75.6487 19.2929 74.1788 17.8788C72.7269 16.4463 72.0009 14.4077 72.0009 11.7631L71.974 0.358127H76.6256V11.4876C76.6256 14.1873 77.719 15.5372 79.9059 15.5372C82.0928 15.5372 83.1862 14.1873 83.1862 11.4876V0.358127Z" fill="url(#paint4_linear_151_279)"/>
<path d="M96.028 15.1791H103.664V19.6419H91.4571V0.358127H96.028V15.1791Z" fill="url(#paint5_linear_151_279)"/>
<path d="M124.067 19.6419H118.26L117.318 18.6226C115.813 19.5409 114.092 20 112.156 20C110.22 20 108.589 19.5317 107.262 18.595C105.936 17.64 105.273 16.2075 105.273 14.2975C105.273 13.1221 105.551 12.1488 106.106 11.3774C106.68 10.5877 107.585 9.81635 108.822 9.06336C107.836 7.66758 107.343 6.39119 107.343 5.23416C107.343 3.52617 107.917 2.23141 109.064 1.34986C110.229 0.449954 111.582 0 113.124 0C114.683 0 116.028 0.459137 117.157 1.37741C118.286 2.29568 118.851 3.58127 118.851 5.23416C118.851 7.30946 117.686 9.03581 115.356 10.4132C116.377 11.5152 116.96 12.1396 117.103 12.2865C117.301 11.7539 117.444 11.2397 117.534 10.7438H122.158C121.997 12.562 121.405 14.2332 120.384 15.7576C122.122 17.5758 123.35 18.8705 124.067 19.6419ZM114.226 5.3168C114.226 4.61892 113.85 4.26997 113.097 4.26997C112.344 4.26997 111.968 4.69238 111.968 5.53719C111.968 5.97796 112.165 6.50138 112.559 7.10744C113.169 6.77686 113.599 6.49219 113.85 6.25344C114.101 5.99633 114.226 5.68411 114.226 5.3168ZM112.425 15.73C113.106 15.73 113.733 15.629 114.307 15.427C113.088 14.1047 112.165 13.0946 111.538 12.3967C110.91 12.7273 110.48 13.0211 110.247 13.2782C110.014 13.517 109.897 13.8017 109.897 14.1322C109.897 14.6281 110.113 15.023 110.543 15.3168C110.973 15.5923 111.6 15.73 112.425 15.73Z" fill="url(#paint6_linear_151_279)"/>
<path d="M134.73 8.98072H145.189V19.6419H141.29V16.9421C140.86 17.8421 140.116 18.5767 139.059 19.146C138.019 19.7153 136.791 20 135.375 20C132.758 20 130.553 19.0634 128.761 17.1901C126.968 15.2984 126.072 12.9201 126.072 10.0551C126.072 7.15335 126.995 4.75666 128.841 2.86501C130.688 0.955005 133.018 0 135.832 0C138.109 0 140.071 0.642792 141.721 1.92838C143.388 3.19559 144.481 4.85767 145.001 6.9146H140.107C139.731 6.14325 139.166 5.54637 138.413 5.12397C137.678 4.6832 136.818 4.46281 135.832 4.46281C134.273 4.46281 133.027 4.97704 132.095 6.00551C131.163 7.03398 130.697 8.4022 130.697 10.1102C130.697 11.7264 131.127 13.0578 131.987 14.1047C132.866 15.1515 134.111 15.6749 135.725 15.6749C136.782 15.6749 137.714 15.4362 138.521 14.9587C139.345 14.4812 139.946 13.7925 140.322 12.8926H134.73V8.98072Z" fill="url(#paint7_linear_151_279)"/>
<path d="M161.79 4.82094H153.401V7.68595H161.037V12.1488H153.401V15.1791H161.79V19.6419H148.83V0.358127H161.79V4.82094Z" fill="url(#paint8_linear_151_279)"/>
<path d="M176.361 0.358127H180.931V19.6419H175.742L168.671 7.49311L169.047 11.5702V19.6419H164.476V0.358127H169.666L176.71 12.5069L176.361 8.42975V0.358127Z" fill="url(#paint9_linear_151_279)"/>
<path d="M184.566 19.6419V0.358127H189.137V19.6419H184.566Z" fill="url(#paint10_linear_151_279)"/>
<path d="M204.102 0.358127H208.754L208.727 11.7631C208.727 14.4077 207.992 16.4463 206.522 17.8788C205.07 19.2929 203.17 20 200.822 20C198.474 20 196.565 19.2929 195.095 17.8788C193.643 16.4463 192.917 14.4077 192.917 11.7631L192.89 0.358127H197.542V11.4876C197.542 14.1873 198.635 15.5372 200.822 15.5372C203.009 15.5372 204.102 14.1873 204.102 11.4876V0.358127Z" fill="url(#paint11_linear_151_279)"/>
<path d="M219.229 7.49311C222.062 8.11754 224.06 8.86134 225.225 9.72452C226.408 10.5693 227 11.9284 227 13.8017C227 14.7016 226.839 15.5188 226.516 16.2534C226.211 16.9697 225.808 17.5574 225.306 18.0165C224.822 18.4757 224.248 18.8613 223.585 19.1736C222.94 19.4858 222.295 19.697 221.649 19.8072C221.022 19.9357 220.386 20 219.74 20C218.36 20 217.141 19.8072 216.084 19.4215C215.026 19.0358 214.184 18.5124 213.556 17.8512C212.929 17.1901 212.445 16.483 212.104 15.73C211.764 14.977 211.54 14.1598 211.432 13.2782H216.057C216.29 14.1047 216.666 14.7016 217.186 15.0689C217.724 15.4362 218.566 15.6198 219.713 15.6198C221.506 15.6198 222.402 15.0781 222.402 13.9945C222.402 13.5354 222.187 13.214 221.757 13.0303C221.345 12.8283 220.484 12.5895 219.176 12.314C219.032 12.2957 218.916 12.2773 218.826 12.259C218.754 12.2406 218.647 12.213 218.503 12.1763C218.378 12.1396 218.253 12.112 218.127 12.0937C217.231 11.91 216.46 11.6988 215.815 11.4601C215.187 11.2213 214.551 10.8907 213.906 10.4683C213.26 10.0275 212.767 9.45822 212.427 8.76033C212.086 8.06244 211.916 7.236 211.916 6.28099C211.916 4.94031 212.274 3.78329 212.991 2.80992C213.726 1.81818 214.632 1.10193 215.707 0.661158C216.783 0.220386 217.939 0 219.176 0C221.649 0 223.496 0.596878 224.715 1.79063C225.951 2.98439 226.659 4.51791 226.839 6.39118H222.214C222.053 5.74839 221.748 5.25253 221.3 4.90358C220.87 4.55464 220.162 4.38017 219.176 4.38017C218.244 4.38017 217.562 4.54545 217.132 4.87603C216.72 5.18825 216.514 5.5831 216.514 6.06061C216.514 6.44628 216.675 6.72176 216.998 6.88705C217.338 7.05234 217.939 7.22681 218.799 7.41047C218.889 7.42883 218.961 7.4472 219.014 7.46556C219.086 7.46556 219.158 7.47475 219.229 7.49311Z" fill="url(#paint12_linear_151_279)"/>
<defs>
<linearGradient id="paint0_linear_151_279" x1="0" y1="10" x2="227" y2="10" gradientUnits="userSpaceOnUse">
<stop stop-color="#9A0404"/>
<stop offset="1" stop-color="#FE0404"/>
</linearGradient>
<linearGradient id="paint1_linear_151_279" x1="0" y1="10" x2="227" y2="10" gradientUnits="userSpaceOnUse">
<stop stop-color="#9A0404"/>
<stop offset="1" stop-color="#FE0404"/>
</linearGradient>
<linearGradient id="paint2_linear_151_279" x1="0" y1="10" x2="227" y2="10" gradientUnits="userSpaceOnUse">
<stop stop-color="#9A0404"/>
<stop offset="1" stop-color="#FE0404"/>
</linearGradient>
<linearGradient id="paint3_linear_151_279" x1="0" y1="10" x2="227" y2="10" gradientUnits="userSpaceOnUse">
<stop stop-color="#9A0404"/>
<stop offset="1" stop-color="#FE0404"/>
</linearGradient>
<linearGradient id="paint4_linear_151_279" x1="0" y1="10" x2="227" y2="10" gradientUnits="userSpaceOnUse">
<stop stop-color="#9A0404"/>
<stop offset="1" stop-color="#FE0404"/>
</linearGradient>
<linearGradient id="paint5_linear_151_279" x1="0" y1="10" x2="227" y2="10" gradientUnits="userSpaceOnUse">
<stop stop-color="#9A0404"/>
<stop offset="1" stop-color="#FE0404"/>
</linearGradient>
<linearGradient id="paint6_linear_151_279" x1="0" y1="10" x2="227" y2="10" gradientUnits="userSpaceOnUse">
<stop stop-color="#9A0404"/>
<stop offset="1" stop-color="#FE0404"/>
</linearGradient>
<linearGradient id="paint7_linear_151_279" x1="0" y1="10" x2="227" y2="10" gradientUnits="userSpaceOnUse">
<stop stop-color="#9A0404"/>
<stop offset="1" stop-color="#FE0404"/>
</linearGradient>
<linearGradient id="paint8_linear_151_279" x1="0" y1="10" x2="227" y2="10" gradientUnits="userSpaceOnUse">
<stop stop-color="#9A0404"/>
<stop offset="1" stop-color="#FE0404"/>
</linearGradient>
<linearGradient id="paint9_linear_151_279" x1="0" y1="10" x2="227" y2="10" gradientUnits="userSpaceOnUse">
<stop stop-color="#9A0404"/>
<stop offset="1" stop-color="#FE0404"/>
</linearGradient>
<linearGradient id="paint10_linear_151_279" x1="0" y1="10" x2="227" y2="10" gradientUnits="userSpaceOnUse">
<stop stop-color="#9A0404"/>
<stop offset="1" stop-color="#FE0404"/>
</linearGradient>
<linearGradient id="paint11_linear_151_279" x1="0" y1="10" x2="227" y2="10" gradientUnits="userSpaceOnUse">
<stop stop-color="#9A0404"/>
<stop offset="1" stop-color="#FE0404"/>
</linearGradient>
<linearGradient id="paint12_linear_151_279" x1="0" y1="10" x2="227" y2="10" gradientUnits="userSpaceOnUse">
<stop stop-color="#9A0404"/>
<stop offset="1" stop-color="#FE0404"/>
</linearGradient>
</defs>
</svg>
