<svg width="128" height="128" viewBox="0 0 128 128" fill="none" xmlns="http://www.w3.org/2000/svg">
<path d="M102.32 24.24C100.2 24.88 98.0399 27.08 97.2399 29.48C96.9199 30.36 96.6399 33.84 96.5199 37.8C96.3599 43.32 96.4399 45.12 96.9599 47.2C98.1599 51.84 100.72 53.96 105.56 54.32C110.84 54.68 114.08 52.72 115.56 48.32C116.28 46.2 116.4 44.88 116.4 39.12C116.4 33.36 116.28 32.04 115.56 29.8C114.56 26.8 112.6 24.72 110.12 24.04C108.04 23.44 104.6 23.52 102.32 24.24ZM108.8 29.12C110.24 30.56 110.56 33.36 110.32 41.32C110.08 48.76 109.52 50 106.24 50C104.6 50 103.28 48.64 102.76 46.52C102.32 44.52 102.32 33.44 102.8 31.4C103.52 28.16 106.64 27 108.8 29.12Z" fill="#9C9696"/>
<path d="M9.35995 24.36C9.27995 24.44 9.19995 31.16 9.19995 39.28V54H12.2H15.2V41.6V29.2H18.8H22.4V41.6V54H25.4H28.4L28.32 39.2L28.2 24.36L18.88 24.28C13.72 24.24 9.43995 24.28 9.35995 24.36Z" fill="#9C9696"/>
<path d="M32 39.08V54H35H38V48V42H40.72C44.32 42 46.16 41.44 48 39.76C49.84 38.08 50.52 36.24 50.56 32.96C50.56 30.16 49.92 28.28 48.44 26.68C46.68 24.72 46.16 24.6 38.88 24.4L32 24.2V39.08ZM43.08 29.4C43.6 29.76 44.16 30.72 44.4 31.56C45.32 35.04 43.48 37.6 39.96 37.6H38V33.2V28.8H40.12C41.36 28.8 42.56 29.04 43.08 29.4Z" fill="#9C9696"/>
<path d="M57.3998 24.4C57.2798 24.64 54.7198 33.84 53.6398 38C51.5998 46 49.5998 53.32 49.3598 53.64C49.2398 53.88 50.3998 54 52.4798 53.92L55.7998 53.8L56.4398 50.8L57.0398 47.8H61.0398H64.9998L65.5198 50C65.7998 51.2 66.1198 52.6 66.1998 53.08C66.3998 53.92 66.6398 54 69.3998 54C71.5998 54 72.3998 53.84 72.3998 53.48C72.3998 53.2 71.5998 50 70.6398 46.4C69.6798 42.76 68.0398 36.56 67.0398 32.6C65.9998 28.64 65.0798 25.2 64.9998 24.92C64.8398 24.48 57.6398 23.96 57.3998 24.4ZM62.7598 37.12C63.5598 41.08 63.7198 42.52 63.3998 42.68C63.1198 42.76 61.8398 42.8 60.5598 42.72C58.8798 42.64 58.2398 42.44 58.3198 42.08C58.3598 41.8 58.9598 39.04 59.5998 35.96C60.2798 32.88 60.7998 30.24 60.8398 30.08C60.9198 29.24 61.7998 32.44 62.7598 37.12Z" fill="#9C9696"/>
<path d="M74.7998 38.8C74.7998 46.72 74.7998 53.32 74.7998 53.48C74.7998 53.68 77.7998 53.8 81.5198 53.8C87.6398 53.8 88.3598 53.72 89.8798 52.92C91.9598 51.8 93.0798 50.24 93.6398 47.6C94.4798 43.72 93.2398 40.2 90.6398 38.96L89.2798 38.28L90.9998 36.64C92.9198 34.76 93.5198 32.56 92.8398 29.64C92.3198 27.36 91.4798 26.16 89.5998 25.2C88.1998 24.48 87.2398 24.4 81.3998 24.4H74.7998V38.8ZM85.5998 29.2C86.5598 29.72 87.2798 31.84 86.9598 33.44C86.5998 35.4 85.5598 36.08 82.9998 36.16L80.7598 36.2L80.6798 32.48L80.5998 28.8H82.7198C83.8798 28.8 85.1998 28.96 85.5998 29.2ZM85.8398 41.28C86.9998 41.84 87.5998 43.24 87.5998 45.36C87.5998 48.32 85.6798 49.68 82.1998 49.2L80.5998 49V45V41L82.1998 40.8C83.9198 40.56 84.5198 40.64 85.8398 41.28Z" fill="#9C9696"/>
<path d="M20.3999 62.72C15.8399 63.92 12.3199 66.6 10.4399 70.36L9.5999 71.96L11.5199 72.24C12.5599 72.36 14.7999 72.72 16.5199 73L19.6399 73.48L20.4399 71.92C20.8799 71.08 21.7999 70 22.5199 69.6C24.0799 68.64 27.5199 68.52 29.1999 69.4C31.3999 70.56 31.7999 74.92 29.8799 76.72C28.8399 77.68 25.7599 78.4 22.5199 78.4H20.3599L20.4799 81.44L20.5999 84.48L23.8399 84.6C29.2799 84.8 31.7599 86.48 31.7599 89.92C31.7599 93.4 29.5599 95.32 25.5999 95.32C24.3199 95.32 22.8399 95.04 22.1199 94.68C20.7999 94 19.1999 92.04 19.1999 91.12C19.1599 89.68 18.7199 89.6 13.6399 90.2C10.9199 90.48 8.6399 90.84 8.5599 90.92C8.0799 91.36 10.2799 95.92 11.6799 97.44C17.2799 103.52 32.5999 104.2 40.0799 98.68C44.1599 95.68 45.0799 88.88 41.9599 85.08C40.7599 83.6 37.4399 81.6 36.1999 81.6C35.1599 81.6 35.5599 81 36.9199 80.48C40.1999 79.28 42.7599 75.84 42.7999 72.6C42.7999 67.36 39.0799 63.64 32.6399 62.44C29.1599 61.8 23.3999 61.92 20.3999 62.72Z" fill="#9C9696"/>
<path d="M57.72 62.4399C53.8 63.1999 50.4 65.4799 48.6 68.5599C48.08 69.4399 47.24 71.5599 46.72 73.1999C45.92 75.7999 45.8 77.0399 45.84 82.3999C45.84 88.0799 45.92 88.8799 46.92 91.7999C49.48 99.3599 54.2 102.4 63.36 102.4C71.48 102.4 76.2 99.8799 78.84 94.1599C80.32 90.9199 80.88 87.5199 80.92 81.9999C80.96 70.6799 77.24 64.3599 69.6 62.6399C66.68 61.9599 60.56 61.8399 57.72 62.4399ZM66.08 68.8799C68.16 69.9199 69 74.8799 68.68 84.3999C68.4 92.5599 68.28 93.2399 66.8 94.7999C65.8 95.8399 65.4 95.9999 63.48 95.9999C58.96 95.9999 58.04 93.6399 58.04 82.1999C58.04 74.8799 58.6 70.9199 59.8 69.5999C61.08 68.1599 64.04 67.8399 66.08 68.8799Z" fill="#9C9696"/>
<path d="M95.5999 62.4399C92.9599 62.9599 89.8399 64.6399 88.2399 66.3999C85.2799 69.6799 84.0799 73.4799 83.7199 80.5999C83.1999 91.5599 86.3999 98.5999 93.1599 101.28C95.1199 102.04 96.1199 102.16 101.2 102.16C106.36 102.16 107.28 102.04 109.36 101.24C111.88 100.24 114.68 97.9599 115.96 95.8399C117.8 92.8799 118.48 89.6399 118.68 83.3599C118.88 78.1599 118.8 76.9199 118.04 73.9999C116.36 67.2799 112.92 63.7199 106.88 62.4399C104.44 61.9199 98.2399 61.9199 95.5999 62.4399ZM104.04 69.0399C104.64 69.3199 105.32 70.1599 105.6 70.8799C106.32 72.9599 106.76 81.6799 106.4 87.4399C105.96 94.6399 105.12 95.9999 101 95.9999C98.4399 95.9999 96.9199 94.5599 96.3999 91.5999C95.8399 88.7599 95.8799 75.5999 96.3999 72.7999C97.1999 68.6799 100.28 67.1599 104.04 69.0399Z" fill="#9C9696"/>
</svg>
