<svg width="126" height="126" viewBox="0 0 126 126" fill="none" xmlns="http://www.w3.org/2000/svg">
<rect x="0.5" y="0.5" width="125" height="125" rx="4.5" fill="#FBF2F2" stroke="#EBB6B6"/>
<path d="M27.0797 40.4545C31.7995 34.8182 38.2536 32 46.4422 32C54.6307 32 61.0849 34.8182 65.8047 40.4545C70.5245 46.0909 72.8844 53.6061 72.8844 63C72.8844 72.3939 70.5245 79.9091 65.8047 85.5455C61.0849 91.1818 54.6307 94 46.4422 94C38.2536 94 31.7995 91.1818 27.0797 85.5455C22.3599 79.9091 20 72.3939 20 63C20 53.6061 22.3599 46.0909 27.0797 40.4545ZM37.486 75.8953C39.3625 78.742 42.3479 80.1653 46.4422 80.1653C50.5365 80.1653 53.5219 78.742 55.3984 75.8953C57.275 72.9917 58.2132 68.6933 58.2132 63C58.2132 57.3067 57.275 53.0367 55.3984 50.1901C53.5219 47.2865 50.5365 45.8347 46.4422 45.8347C42.3479 45.8347 39.3625 47.2865 37.486 50.1901C35.6094 53.0367 34.6712 57.3067 34.6712 63C34.6712 68.6933 35.6094 72.9917 37.486 75.8953Z" fill="#DD8686"/>
<path d="M100.432 33.1102H107V92.8898H92.4994V50.0193L79.2784 55.5703V41.3085L100.432 33.1102Z" fill="#DD8686"/>
</svg>
