<svg width="104" height="41" viewBox="0 0 104 41" fill="none" xmlns="http://www.w3.org/2000/svg">
<path d="M15.6699 30.928H30.3979V40H0.0459375V33.224L11.5259 23.2C15.2966 19.8773 17.6486 17.6747 18.5819 16.592C19.5526 15.5093 20.0379 14.3893 20.0379 13.232C20.0379 12.112 19.6459 11.16 18.8619 10.376C18.1153 9.55467 16.9206 9.144 15.2779 9.144C12.2166 9.144 10.4806 10.9173 10.0699 14.464H0.493938C0.643271 10.096 2.11794 6.60533 4.91794 3.992C7.75527 1.37866 11.3579 0.0719967 15.7259 0.0719967C19.9819 0.0719967 23.3606 1.304 25.8619 3.768C28.4006 6.232 29.6699 9.23733 29.6699 12.784C29.6699 13.9787 29.4833 15.136 29.1099 16.256C28.7366 17.3387 28.3446 18.272 27.9339 19.056C27.5233 19.8027 26.7393 20.7733 25.5819 21.968C24.4619 23.1253 23.5659 24.0027 22.8939 24.6C22.2593 25.16 21.1019 26.1867 19.4219 27.68L15.7819 30.872L15.6699 30.928ZM38.7161 5.616C41.8148 1.92 46.0521 0.0719967 51.4281 0.0719967C56.8041 0.0719967 61.0415 1.92 64.1401 5.616C67.2388 9.312 68.7881 14.24 68.7881 20.4C68.7881 26.56 67.2388 31.488 64.1401 35.184C61.0415 38.88 56.8041 40.728 51.4281 40.728C46.0521 40.728 41.8148 38.88 38.7161 35.184C35.6175 31.488 34.0681 26.56 34.0681 20.4C34.0681 14.24 35.6175 9.312 38.7161 5.616ZM45.5481 28.856C46.7801 30.7227 48.7401 31.656 51.4281 31.656C54.1161 31.656 56.0761 30.7227 57.3081 28.856C58.5401 26.952 59.1561 24.1333 59.1561 20.4C59.1561 16.6667 58.5401 13.8667 57.3081 12C56.0761 10.096 54.1161 9.144 51.4281 9.144C48.7401 9.144 46.7801 10.096 45.5481 12C44.3161 13.8667 43.7001 16.6667 43.7001 20.4C43.7001 24.1333 44.3161 26.952 45.5481 28.856ZM93.7751 9.48V18.944H103.015V28.016H93.7751V37.536H84.2551V28.016H74.9591V18.944H84.2551V9.48H93.7751Z" fill="#6E6868"/>
</svg>
