<svg width="126" height="126" viewBox="0 0 126 126" fill="none" xmlns="http://www.w3.org/2000/svg">
<rect x="0.5" y="0.5" width="125" height="125" rx="4.5" fill="#FBF2F2" stroke="#EBB6B6"/>
<path d="M24.0232 44.2273C28.0387 39.4091 33.5298 37 40.4965 37C47.4631 37 52.9542 39.4091 56.9697 44.2273C60.9852 49.0455 62.9929 55.4697 62.9929 63.5C62.9929 71.5303 60.9852 77.9545 56.9697 82.7727C52.9542 87.5909 47.4631 90 40.4965 90C33.5298 90 28.0387 87.5909 24.0232 82.7727C20.0077 77.9545 18 71.5303 18 63.5C18 55.4697 20.0077 49.0455 24.0232 44.2273ZM32.8767 74.5234C34.4732 76.9568 37.0131 78.1736 40.4965 78.1736C43.9798 78.1736 46.5197 76.9568 48.1162 74.5234C49.7127 72.0413 50.511 68.3669 50.511 63.5C50.511 58.6332 49.7127 54.983 48.1162 52.5496C46.5197 50.0675 43.9798 48.8265 40.4965 48.8265C37.0131 48.8265 34.4732 50.0675 32.8767 52.5496C31.2802 54.983 30.4819 58.6332 30.4819 63.5C30.4819 68.3669 31.2802 72.0413 32.8767 74.5234Z" fill="#DD8686"/>
<path d="M101.106 62.332C103.283 63.3053 104.976 64.8141 106.186 66.8581C107.395 68.9022 108 71.3113 108 74.0854C108 79.0983 106.258 83.0161 102.775 85.8388C99.2917 88.613 94.5989 90 88.6966 90C82.9878 90 78.2466 88.5156 74.473 85.5468C70.7478 82.5294 68.7401 78.1979 68.4498 72.5523H80.9317C81.4639 76.3485 84.0038 78.2466 88.5514 78.2466C93.1959 78.2466 95.5181 76.4458 95.5181 72.8444C95.5181 71.3843 95.0585 70.3136 94.1393 69.6322C93.2201 68.9509 91.5752 68.6102 89.2046 68.6102H82.5282V57.8058H88.0435C89.9303 57.8058 91.4058 57.5381 92.4702 57.0028C93.5345 56.4187 94.0667 55.3724 94.0667 53.8636C94.0667 50.4568 91.938 48.7534 87.6806 48.7534C84.0038 48.7534 81.8751 50.4812 81.2945 53.9366H68.8126C69.1513 48.6318 71.1106 44.495 74.6907 41.5262C78.2708 38.5087 82.7217 37 88.0435 37C93.5103 37 97.9613 38.4357 101.396 41.3072C104.831 44.1786 106.549 47.8044 106.549 52.1846C106.549 56.7594 104.734 60.1419 101.106 62.332Z" fill="#DD8686"/>
</svg>
