<svg width="245" height="96" viewBox="0 0 245 96" fill="none" xmlns="http://www.w3.org/2000/svg">
<g clip-path="url(#clip0_16_767)">
<path d="M143.489 34.006C140.421 34.006 138.011 34.6665 135.599 35.985C135.599 28.9467 135.599 22.5689 135.819 20.3701L121.132 23.0084V24.3281L122.666 24.5479C124.637 24.9874 125.298 26.0861 125.732 28.7269C126.174 34.006 125.952 62.1606 125.732 66.7804C129.677 67.6607 133.843 68.3212 138.009 68.3212C149.627 68.3212 156.641 61.0619 156.641 49.6235C156.641 40.6061 150.942 34.006 143.489 34.006ZM138.447 65.9002C137.57 65.9002 136.473 65.9002 135.817 65.6817C135.597 62.6027 135.379 49.6235 135.597 38.1863C136.912 37.7456 137.788 37.5258 138.885 37.5258C143.711 37.5258 146.341 43.2444 146.341 50.2815C146.34 59.0829 143.051 65.9002 138.447 65.9002ZM65.8904 21.2491H27.3101V23.2281L29.5025 23.4479C32.3506 23.8874 33.4481 25.6466 33.8848 29.8257C34.5443 37.7443 34.3241 52.0433 33.8848 58.8593C33.4469 63.0396 32.3519 65.0199 29.5025 65.2371L27.3101 65.6792V67.4384H52.0801V65.6792L49.4496 65.2371C46.6002 65.0186 45.504 63.0396 45.066 58.8593C44.8458 55.9987 44.6268 51.3789 44.6268 45.6616L49.8876 45.8814C53.1763 45.8814 54.7092 48.5209 55.3675 52.2592H57.3409V36.6468H55.3675C54.708 40.3864 53.1763 43.0246 49.8876 43.0246L44.628 43.2457C44.628 35.7666 44.847 28.7282 45.0673 24.5492H52.7383C58.6587 24.5492 61.7271 28.2874 63.9182 34.8876L66.1107 34.227L65.8904 21.2491Z" fill="#9C9696"/>
<path d="M78.3856 33.5664C89.3465 33.5664 94.8263 41.0455 94.8263 50.9431C94.8263 60.4012 88.6883 68.3223 77.7273 68.3223C66.7677 68.3223 61.2878 60.842 61.2878 50.9431C61.2878 41.485 67.4246 33.5664 78.3856 33.5664ZM77.7273 35.7664C72.9045 35.7664 71.5893 42.3652 71.5893 50.9431C71.5893 59.3012 73.7817 66.1198 78.1666 66.1198C83.2046 66.1198 84.5224 59.5209 84.5224 50.9431C84.5224 42.585 82.3325 35.7664 77.7273 35.7664ZM159.489 51.1641C159.489 42.1455 165.188 33.5664 176.368 33.5664C185.572 33.5664 189.958 40.3862 189.958 49.4036H169.572C169.352 57.5419 173.297 63.4815 181.19 63.4815C184.697 63.4815 186.451 62.6038 188.644 61.063L189.519 62.1617C187.326 65.2408 182.505 68.3223 176.368 68.3223C166.503 68.3211 159.489 61.2827 159.489 51.1641ZM169.572 46.9851L179.874 46.764C179.874 42.3652 179.216 35.7664 175.491 35.7664C171.765 35.7664 169.79 41.9245 169.572 46.9851ZM216.047 35.3269C213.417 34.2256 209.91 33.5664 205.965 33.5664C197.856 33.5664 192.811 38.4047 192.811 44.1245C192.811 49.8443 196.534 52.2629 201.801 54.0234C207.28 56.0011 208.815 57.5419 208.815 60.1815C208.815 62.821 206.842 65.2395 203.334 65.2395C199.171 65.2395 196.1 62.821 193.69 56.2209L192.154 56.6629L192.375 66.3408C195.005 67.4395 199.827 68.3211 203.993 68.3211C212.542 68.3211 218.023 63.9197 218.023 57.1024C218.023 52.4826 215.61 49.8443 209.912 47.643C203.772 45.2245 201.582 43.685 201.582 40.8245C201.582 37.9652 203.558 35.9849 206.189 35.9849C210.132 35.9849 212.762 38.4047 214.738 44.3443L216.271 43.9048L216.047 35.3269ZM123.322 34.4466C119.596 32.2491 113.019 33.3466 109.513 41.2665L109.73 33.5676L95.0453 36.4269V37.7467L96.5795 37.9664C98.5542 38.1875 99.4289 39.2862 99.6492 42.1468C100.087 47.4258 99.8682 56.6655 99.6492 61.284C99.4289 63.921 98.5542 65.2408 96.5795 65.4618L95.0453 65.6828V67.4421H115.43V65.6828L112.8 65.4618C110.609 65.2408 109.951 63.921 109.73 61.284C109.292 57.1037 109.292 48.7456 109.513 43.4665C110.608 41.9257 115.43 40.6072 119.814 43.4665L123.322 34.4466Z" fill="#9C9696"/>
</g>
<defs>
<clipPath id="clip0_16_767">
<rect width="244" height="95" fill="white" transform="translate(0.666626 0.5)"/>
</clipPath>
</defs>
</svg>
