<svg width="401" height="56" viewBox="0 0 401 56" fill="none" xmlns="http://www.w3.org/2000/svg">
<path d="M398.695 7.89168C398.696 5.16186 396.481 2.94716 393.751 2.94716C391.04 2.9475 388.807 5.17979 388.808 7.89135C388.808 10.6032 391.041 12.8342 393.752 12.8349C396.465 12.8359 398.694 10.6039 398.695 7.89168ZM387.97 7.89135C387.97 4.71845 390.578 2.10938 393.751 2.10938C396.94 2.10938 399.533 4.7012 399.533 7.88999C399.534 11.0622 396.924 13.6716 393.752 13.6726C390.579 13.6737 387.97 11.0642 387.97 7.89135Z" fill="#9C9696"/>
<path fill-rule="evenodd" clip-rule="evenodd" d="M393.582 3.64357C393.733 5.0604 394.874 4.25542 395.366 3.8597C395.546 3.7173 395.766 3.45518 395.886 3.38144C395.964 3.33545 396.079 3.36792 396.125 3.46431C396.171 3.6067 396.19 3.7863 396.102 4.04843C395.996 4.35655 395.817 4.65554 395.716 4.81654C395.454 5.23966 395.196 5.61204 394.888 6.00303C394.387 6.62875 393.752 7.12527 393.228 7.73712C392.423 8.67536 391.968 10.1243 392.216 11.3477C392.28 11.6602 392.428 12.0559 392.727 12.2213C394.502 13.2059 395.803 8.98348 395.201 7.73712C395.118 7.57612 394.953 7.28626 394.732 7.32786C393.619 7.53486 393.104 11.1498 393.798 11.4119C393.764 11.8398 393.085 12.1019 392.888 11.3108C392.823 11.0348 392.809 10.745 392.819 10.4598C392.852 9.25474 393.817 7.43339 394.92 6.87701C395.422 6.61928 396.13 6.62402 396.411 7.199C397.4 9.2456 394.727 13.0263 392.414 12.6813C391.296 12.5112 390.891 11.4397 390.979 10.423C391.048 9.5862 391.397 8.79035 391.88 8.1095C392.856 6.73901 394.391 6.33889 395.137 5.26266C395.137 5.26266 395.165 5.22139 395.17 5.19839C395.182 5.16457 395.142 5.12466 395.092 5.16457C395.009 5.2383 394.581 5.45916 394.282 5.49569C393.68 5.56469 393.353 4.74145 393.252 4.2862C393.229 4.18507 393.224 4.10694 393.128 4.23546C392.834 4.61732 392.608 6.75152 392.309 6.87092L391.141 7.33564C391.141 7.33564 391.091 7.35931 391.072 7.28964C390.939 6.79279 392.144 5.06818 392.48 4.48846C392.525 4.41506 392.801 3.87694 392.852 3.83534C392.939 3.76195 393.471 3.6253 393.582 3.64357Z" fill="#9C9696"/>
<path d="M43.7274 44.1967H27.6384L17.7845 27.8583L14.5829 31.1895V44.1967H1.1333V3.09106H14.5829V16.358L26.115 3.09106H41.8892L27.0992 18.4225L43.7274 44.1967ZM61.7356 28.9471C61.7356 27.0676 61.2946 25.3632 60.4114 23.8537C59.5287 22.3442 58.166 21.5846 56.3044 21.5846C54.644 21.5846 53.3872 22.3442 52.5426 23.8635C51.6981 25.3923 51.276 27.0872 51.276 28.9471C51.276 30.9436 51.7268 32.833 52.6292 34.5958C53.5214 36.3681 54.9031 37.2542 56.7552 37.2542C58.5404 37.2542 59.8165 36.3972 60.5843 34.6736C61.3521 32.95 61.7356 31.041 61.7356 28.9471ZM71.0639 38.2084C67.8859 42.9209 62.4388 45.1261 56.8049 45.1261C50.999 45.1261 45.403 42.9395 42.1581 38.0396C39.1817 33.5446 38.8008 26.2152 41.3081 21.4192C43.237 17.7281 46.7725 15.0602 50.8261 13.9762C55.291 12.7369 60.1236 13.0048 64.4103 14.7731C68.4189 16.4202 71.4011 19.8092 72.6995 23.8378C74.1174 28.2365 73.6114 34.4301 71.0639 38.2084ZM175.292 25.9318C174.871 23.9741 174.179 22.6172 173.224 21.8609C172.261 21.0935 171.045 20.7153 169.558 20.7153C168.117 20.7153 166.976 21.0827 166.134 21.8274C165.293 22.5617 164.656 23.9298 164.217 25.9318H175.292ZM186.797 31.7371H164.333C164.333 32.6625 164.492 33.4746 164.81 34.1821C165.777 36.3343 167.526 37.787 170.029 37.787C171.868 37.787 173.989 37.0466 174.384 35.0494H185.89C185.453 37.8833 183.644 40.3839 181.316 42.027C178.967 43.6795 176.082 44.6002 173.234 44.9252C169.581 45.374 165.355 45.2519 161.972 43.8395C158.036 42.2038 155.097 39.1798 153.497 35.2773C152.027 31.4736 152.007 27.2546 153.432 23.4205C154.91 19.4429 157.952 16.3668 161.897 14.7355C166.695 12.7603 173.412 12.8942 178.051 15.2073C182.167 17.2522 184.975 20.7383 186.142 25.1383C186.718 27.3517 186.937 29.4723 186.797 31.7371ZM219.021 38.2655C216.811 42.4788 212.729 45.1106 207.809 45.1106C204.275 45.1106 201.95 43.9619 199.562 41.5108V54.3999H187.577V14.3462H198.189V18.8121C200.491 14.2255 206.188 12.559 210.785 13.7161C215.792 14.9652 219.165 19.1757 220.366 23.9082C221.488 28.3068 221.099 34.336 219.021 38.2655ZM209.26 28.5267C209.26 27.2607 208.84 25.8787 207.99 24.3902C207.14 22.902 205.909 22.1579 204.305 22.1579C202.711 22.1579 201.479 22.8536 200.62 24.2549C199.761 25.6467 199.331 27.0672 199.331 28.5267C199.331 30.3149 199.665 31.9867 200.334 33.5331C201.011 35.0795 202.329 35.8526 204.305 35.8526C206.234 35.8526 207.532 35.0504 208.229 33.4462C208.859 31.8978 209.26 30.2046 209.26 28.5267ZM246.764 43.853C242.107 45.484 235.778 45.7342 231.141 43.805C228.222 42.5904 225.634 40.5408 224 37.8154C222.402 35.1978 221.572 32.1822 221.572 29.1125C221.572 27.0679 222.003 25.0588 222.725 23.1513C224.4 18.8619 227.297 16.4006 231.479 14.6956C236.265 12.744 243.373 12.8151 247.917 15.2878C252.248 17.6446 254.515 20.8902 255.111 25.6734H242.847C242.631 24.2021 242.216 23.2926 241.61 22.5167C239.892 20.3176 236.004 21.3921 234.764 23.5622C233.181 26.3312 232.919 30.4214 233.92 33.4566C234.58 35.4573 236.753 37.1535 238.864 37.1535C241.857 37.1535 242.478 35.1383 243.259 32.6334H255.111C254.986 37.6419 251.992 42.0219 246.764 43.853ZM276.971 32.4589C276.971 31.9032 276.921 31.4469 276.821 31.0996C275.999 31.5558 274.715 31.9529 272.97 32.2901C271.641 32.5329 270.227 32.8299 269.039 33.481C267.354 34.314 267.445 36.7029 268.918 37.6679C270.623 38.6934 273.482 38.6088 274.915 37.1721C276.279 35.8719 276.971 34.3046 276.971 32.4589ZM290.305 44.1967H278.038L277.572 41.0349C276.677 42.1907 274.679 43.1428 272.661 43.9197C271.677 44.2985 270.667 44.5981 269.632 44.7889C268.597 44.9705 267.497 45.0662 266.351 45.0662C264.282 45.0662 262.389 44.7033 260.675 43.9772C258.96 43.251 257.664 42.1142 256.769 40.5858C255.968 38.9044 255.567 37.2038 255.567 35.4654C255.567 33.2679 256.59 31.456 257.997 29.8319C258.799 28.9055 259.584 28.3849 261.001 27.8407C261.672 27.583 262.335 27.3591 262.986 27.1721C263.631 26.9867 264.242 26.8102 264.822 26.7229L269.846 25.9683C271.979 25.648 274.041 25.3717 274.953 25.0703C275.513 24.8846 276.175 24.2785 276.501 23.8964C276.827 23.5145 276.779 23.113 276.779 22.7024C276.779 22.1386 276.509 21.6705 275.959 21.2886C275.409 20.9064 274.626 20.7153 273.61 20.7153C272.389 20.7153 270.872 20.897 270.135 21.2599C269.399 21.6228 268.923 22.349 268.7 23.4282H257.336C257.719 21.4699 257.649 20.3267 258.205 19.1308C258.758 17.9385 259.631 16.9147 260.824 16.0644C262.017 15.2144 263.655 14.5535 265.754 14.1155C266.768 13.9041 267.973 13.7567 269.343 13.6474C270.723 13.5372 272.251 13.4756 273.947 13.4756C278.076 13.4756 281.169 13.9667 283.231 14.9466C285.289 15.925 286.631 16.7134 287.258 18.1837C287.88 19.6462 288.301 21.5464 288.497 23.8774V39.659C288.497 41.2832 289.103 42.4869 290.305 43.2703V44.1967ZM323.641 44.1967H311.807V33.0403H303.043V44.1967H291.323L291.311 14.8116L291.323 14.3624H303.043V24.359H311.675V14.3624H323.641L323.63 43.6619L323.641 44.1967ZM356.523 23.1553H346.333V44.1967H334.463V23.1553H324.187V14.3624H356.523V23.1553ZM394.961 34.6496C394.961 37.2701 393.712 39.5724 391.707 41.2145C389.069 43.3968 385.419 44.1967 382.07 44.1967H363.752V23.1553H356.909V14.3624H375.173V24.8336H381.421C384.899 24.8336 388.755 25.5138 391.512 27.7981C393.584 29.5153 394.961 31.917 394.961 34.6496ZM383.163 34.68C383.163 32.7951 382.12 32.0043 380.327 31.7895C379.963 31.7895 379.242 31.7591 378.176 31.7134C377.109 31.6657 375.68 31.6468 375.173 31.6468V37.4088L378.14 37.466C378.949 37.483 379.616 37.449 380.132 37.4088C381.954 37.2735 383.163 36.7784 383.163 34.68ZM96.4447 44.1963H90.6928L84.4079 24.2664L85.3786 32.078V44.1963H74.8835V14.1903H88.3435L93.5687 30.765L98.794 14.1903H112.254V44.1963H101.759V32.078L102.73 24.2664L96.4447 44.1963ZM135.748 44.1963H129.996L123.711 24.2664L124.682 32.078V44.1963H114.186V14.1903H127.647L132.872 30.765L138.097 14.1903H151.557V44.1963H141.062V32.078L142.033 24.2664L135.748 44.1963Z" fill="#9C9696"/>
</svg>
